<svg width="29" height="28" viewBox="0 0 29 28" fill="none" xmlns="http://www.w3.org/2000/svg">
<g clip-path="url(#clip0_2863_10307)">
<path fill-rule="evenodd" clip-rule="evenodd" d="M27.8995 2.15804C26.8677 0.192436 23.4741 0.809836 20.5411 1.59524C7.79129 6.29364 3.28049 15.8417 1.69569 21.5299C1.61729 21.6727 1.56969 21.8365 1.56549 22.0115C0.938289 24.4251 0.852889 26.0337 0.851489 26.0869C0.827689 26.6651 1.27709 27.1537 1.85529 27.1775C1.87069 27.1789 1.88609 27.1789 1.90149 27.1789C2.46009 27.1789 2.92489 26.7379 2.95009 26.1737C2.95709 26.0029 3.02149 24.8283 3.41769 23.0727C6.92889 22.9243 10.4639 21.6167 13.9359 19.1751C14.2075 18.9847 14.3727 18.6767 14.3825 18.3463C14.3923 18.0145 14.2439 17.6981 13.9849 17.4937L12.3833 16.2253L17.6389 15.7101C17.8531 15.6891 18.0547 15.6037 18.2185 15.4637C18.3319 15.3685 21.0073 13.0781 23.5525 10.4082C27.4235 6.34824 28.7633 3.80444 27.8995 2.15804Z" fill="#335CFF"/>
<path fill-rule="evenodd" clip-rule="evenodd" d="M21.6783 25.0798H12.7043C12.1247 25.0798 11.6543 25.5502 11.6543 26.1298C11.6543 26.7094 12.1247 27.1798 12.7043 27.1798H21.6783C22.2579 27.1798 22.7283 26.7094 22.7283 26.1298C22.7283 25.5502 22.2579 25.0798 21.6783 25.0798Z" fill="#335CFF"/>
</g>
<defs>
<clipPath id="clip0_2863_10307">
<rect width="28" height="28" fill="white" transform="translate(0.5)"/>
</clipPath>
</defs>
</svg>
