<svg width="157" height="30" viewBox="0 0 157 30" fill="none" xmlns="http://www.w3.org/2000/svg">
<g clip-path="url(#clip0_3761_3778)">
<g clip-path="url(#clip1_3761_3778)">
<path fill-rule="evenodd" clip-rule="evenodd" d="M27.3995 3.15785C26.3677 1.19225 22.9741 1.80965 20.0411 2.59505C7.29135 7.29345 2.78055 16.8415 1.19575 22.5297C1.11735 22.6725 1.06975 22.8363 1.06555 23.0113C0.43835 25.4249 0.35295 27.0335 0.35155 27.0867C0.32775 27.6649 0.77715 28.1535 1.35535 28.1773C1.37075 28.1787 1.38615 28.1787 1.40155 28.1787C1.96015 28.1787 2.42495 27.7377 2.45015 27.1735C2.45715 27.0027 2.52155 25.8281 2.91775 24.0725C6.42895 23.9241 9.96395 22.6165 13.4359 20.1749C13.7075 19.9845 13.8727 19.6765 13.8825 19.3461C13.8923 19.0143 13.7439 18.6979 13.4849 18.4935L11.8833 17.2251L17.1389 16.7099C17.3531 16.6889 17.5547 16.6035 17.7185 16.4635C17.8319 16.3683 20.5073 14.0779 23.0525 11.4081C26.9235 7.34805 28.2633 4.80425 27.3995 3.15785Z" fill="#335CFF"/>
<path fill-rule="evenodd" clip-rule="evenodd" d="M21.1785 26.0801H12.2045C11.6249 26.0801 11.1545 26.5505 11.1545 27.1301C11.1545 27.7097 11.6249 28.1801 12.2045 28.1801H21.1785C21.7581 28.1801 22.2285 27.7097 22.2285 27.1301C22.2285 26.5505 21.7581 26.0801 21.1785 26.0801Z" fill="#335CFF"/>
</g>
<path d="M45.36 24.207C44.072 24.207 42.9527 24.023 42.002 23.655C41.0667 23.287 40.3537 22.7963 39.863 22.183C39.3723 21.5697 39.127 20.9103 39.127 20.205C39.127 19.6223 39.2803 19.1777 39.587 18.871C39.8937 18.549 40.3613 18.388 40.99 18.388C40.99 19.6913 41.381 20.688 42.163 21.378C42.945 22.0527 44.0413 22.39 45.452 22.39C46.8013 22.39 47.8363 22.1677 48.557 21.723C49.2777 21.263 49.638 20.5883 49.638 19.699C49.638 19.1623 49.5 18.7253 49.224 18.388C48.9633 18.0353 48.511 17.7363 47.867 17.491C47.2383 17.2303 46.326 16.9697 45.13 16.709C43.7193 16.4023 42.6 16.0497 41.772 15.651C40.944 15.237 40.3383 14.7387 39.955 14.156C39.5717 13.5733 39.38 12.8527 39.38 11.994C39.38 11.1353 39.6177 10.384 40.093 9.74C40.5837 9.08067 41.2737 8.57467 42.163 8.222C43.0523 7.86933 44.0873 7.693 45.268 7.693C46.3873 7.693 47.384 7.854 48.258 8.176C49.1473 8.48267 49.8373 8.92733 50.328 9.51C50.834 10.0773 51.087 10.7213 51.087 11.442C51.087 11.8867 50.9413 12.2393 50.65 12.5C50.374 12.7453 49.937 12.868 49.339 12.868C49.1703 11.7027 48.7563 10.8517 48.097 10.315C47.453 9.77833 46.51 9.51 45.268 9.51C44.072 9.51 43.152 9.72467 42.508 10.154C41.864 10.568 41.542 11.1583 41.542 11.925C41.542 12.4617 41.657 12.9063 41.887 13.259C42.1323 13.5963 42.5387 13.8877 43.106 14.133C43.6887 14.3783 44.5013 14.616 45.544 14.846C47.108 15.1833 48.3347 15.559 49.224 15.973C50.1287 16.387 50.7803 16.893 51.179 17.491C51.5777 18.089 51.777 18.825 51.777 19.699C51.777 21.0943 51.1943 22.1983 50.029 23.011C48.8637 23.8083 47.3073 24.207 45.36 24.207ZM58.5748 24.207C57.6394 24.207 56.8038 24.0307 56.0678 23.678C55.3318 23.31 54.7568 22.8117 54.3428 22.183C53.9288 21.539 53.7218 20.8183 53.7218 20.021V16.617C53.7218 15.8043 53.9364 15.0683 54.3658 14.409C54.8104 13.7497 55.4008 13.236 56.1368 12.868C56.8881 12.4847 57.7008 12.293 58.5748 12.293C59.4488 12.293 60.2461 12.477 60.9668 12.845C61.7028 13.213 62.2778 13.719 62.6918 14.363C63.1211 15.007 63.3358 15.7353 63.3358 16.548V18.02C63.3358 18.2653 63.2438 18.4723 63.0598 18.641C62.8758 18.8097 62.6534 18.894 62.3928 18.894H55.6768V19.929C55.6768 20.711 55.9221 21.3397 56.4128 21.815C56.9188 22.2903 57.6394 22.528 58.5748 22.528C59.5101 22.528 60.2231 22.321 60.7138 21.907C61.2044 21.493 61.4498 20.9333 61.4498 20.228C61.9098 20.1973 62.2931 20.2893 62.5998 20.504C62.9218 20.7033 63.0828 21.0023 63.0828 21.401C63.0828 21.8917 62.8681 22.3517 62.4388 22.781C62.0248 23.2103 61.4728 23.5553 60.7828 23.816C60.0928 24.0767 59.3568 24.207 58.5748 24.207ZM61.4728 17.33V16.548C61.4728 15.7813 61.2044 15.1603 60.6678 14.685C60.1464 14.1943 59.4488 13.949 58.5748 13.949C57.7008 13.949 56.9954 14.1943 56.4588 14.685C55.9374 15.1603 55.6768 15.7813 55.6768 16.548V17.33H61.4728ZM65.5308 13.995C65.5308 12.8603 66.1748 12.293 67.4628 12.293V13.765C67.3248 13.903 67.1638 14.11 66.9798 14.386L67.0718 14.478C67.5318 13.834 68.1298 13.3127 68.8658 12.914C69.6018 12.5 70.3992 12.293 71.2578 12.293C72.4998 12.293 73.4812 12.661 74.2018 13.397C74.9225 14.133 75.2828 15.0837 75.2828 16.249V22.735C75.2828 23.241 75.1142 23.6167 74.7768 23.862C74.4548 24.092 73.9565 24.207 73.2818 24.207V16.456C73.2818 15.72 73.0748 15.1373 72.6608 14.708C72.2468 14.2787 71.6182 14.064 70.7748 14.064C70.2075 14.064 69.6708 14.1867 69.1648 14.432C68.6742 14.662 68.2755 14.984 67.9688 15.398C67.6775 15.7967 67.5318 16.2337 67.5318 16.709V22.735C67.5318 23.241 67.3632 23.6167 67.0258 23.862C66.7038 24.092 66.2055 24.207 65.5308 24.207V13.995ZM81.6242 24.207C80.3055 24.207 79.2398 23.8543 78.4272 23.149C77.6298 22.4437 77.2312 21.516 77.2312 20.366C77.2312 19.2007 77.6528 18.2653 78.4962 17.56C79.3395 16.8393 80.4512 16.479 81.8312 16.479C83.3032 16.479 84.5145 17.0003 85.4652 18.043L85.5572 17.951C85.3885 17.767 85.1968 17.5753 84.9822 17.376V16.41C84.9822 15.628 84.7368 15.0223 84.2462 14.593C83.7555 14.1637 83.0578 13.949 82.1532 13.949C80.5432 13.949 79.3932 14.5853 78.7032 15.858C78.4578 15.7353 78.2508 15.5743 78.0822 15.375C77.9288 15.1603 77.8522 14.9457 77.8522 14.731C77.8522 14.317 78.0592 13.926 78.4732 13.558C78.8872 13.1747 79.4315 12.868 80.1062 12.638C80.7962 12.408 81.5168 12.293 82.2682 12.293C83.7248 12.293 84.8672 12.6533 85.6952 13.374C86.5385 14.0947 86.9602 15.0913 86.9602 16.364V22.666C86.9602 23.2027 86.8068 23.5937 86.5002 23.839C86.1935 24.0843 85.7105 24.207 85.0512 24.207V23.126C85.3732 22.7887 85.5495 22.5893 85.5802 22.528L85.4882 22.436C84.4915 23.6167 83.2035 24.207 81.6242 24.207ZM81.9692 22.62C82.9198 22.62 83.6635 22.4207 84.2002 22.022C84.7522 21.6233 85.0282 21.0713 85.0282 20.366C85.0282 19.6607 84.7598 19.101 84.2232 18.687C83.6865 18.273 82.9505 18.066 82.0152 18.066C81.1412 18.066 80.4512 18.273 79.9452 18.687C79.4545 19.0857 79.2092 19.6453 79.2092 20.366C79.2092 21.0867 79.4468 21.6463 79.9222 22.045C80.4128 22.4283 81.0952 22.62 81.9692 22.62ZM91.1278 10.568C90.6985 10.568 90.3382 10.43 90.0468 10.154C89.7555 9.878 89.6098 9.533 89.6098 9.119C89.6098 8.705 89.7555 8.36767 90.0468 8.107C90.3382 7.831 90.6985 7.693 91.1278 7.693C91.5418 7.693 91.8945 7.831 92.1858 8.107C92.4772 8.36767 92.6228 8.705 92.6228 9.119C92.6228 9.533 92.4772 9.878 92.1858 10.154C91.8945 10.43 91.5418 10.568 91.1278 10.568ZM90.1158 13.765C90.1158 13.259 90.2768 12.891 90.5988 12.661C90.9362 12.4157 91.4422 12.293 92.1168 12.293V22.735C92.1168 23.241 91.9482 23.6167 91.6108 23.862C91.2888 24.092 90.7905 24.207 90.1158 24.207V13.765ZM100.864 9.556C100.864 8.97333 101.04 8.521 101.393 8.199C101.761 7.86167 102.267 7.693 102.911 7.693L111.835 21.263L111.996 21.125L111.329 20.021V7.693C112.034 7.693 112.563 7.84633 112.916 8.153C113.284 8.45967 113.468 8.90433 113.468 9.487V22.505C113.468 22.9957 113.291 23.402 112.939 23.724C112.601 24.046 112.164 24.207 111.628 24.207L102.497 10.338L102.336 10.476L103.003 11.58V22.413C103.003 22.9957 102.819 23.4403 102.451 23.747C102.098 24.0537 101.569 24.207 100.864 24.207V9.556ZM120.025 24.207C119.089 24.207 118.238 24.0307 117.472 23.678C116.72 23.3253 116.13 22.85 115.701 22.252C115.287 21.6387 115.08 20.9563 115.08 20.205V16.433C115.08 15.6663 115.287 14.9687 115.701 14.34C116.13 13.7113 116.72 13.213 117.472 12.845C118.223 12.477 119.074 12.293 120.025 12.293C120.975 12.293 121.826 12.477 122.578 12.845C123.344 13.213 123.935 13.7113 124.349 14.34C124.778 14.9687 124.993 15.6663 124.993 16.433V20.205C124.993 20.9563 124.778 21.6387 124.349 22.252C123.919 22.85 123.329 23.3253 122.578 23.678C121.826 24.0307 120.975 24.207 120.025 24.207ZM120.025 22.482C120.945 22.482 121.673 22.2673 122.21 21.838C122.762 21.3933 123.038 20.8183 123.038 20.113V16.502C123.038 15.766 122.762 15.168 122.21 14.708C121.673 14.248 120.945 14.018 120.025 14.018C119.12 14.018 118.392 14.248 117.84 14.708C117.288 15.168 117.012 15.766 117.012 16.502V20.113C117.012 20.8183 117.28 21.3933 117.817 21.838C118.369 22.2673 119.105 22.482 120.025 22.482ZM131.182 24.207C130.093 24.207 129.28 23.9003 128.744 23.287C128.207 22.6583 127.939 21.838 127.939 20.826V14.11H125.8C125.8 13.5887 125.915 13.19 126.145 12.914C126.375 12.638 126.689 12.5 127.088 12.5H127.962V10.315C127.962 9.809 128.123 9.441 128.445 9.211C128.782 8.96567 129.28 8.843 129.94 8.843V12.5H132.999C132.999 13.5733 132.516 14.11 131.55 14.11H129.963V20.757C129.963 21.3703 130.07 21.8073 130.285 22.068C130.515 22.3133 130.921 22.436 131.504 22.436C132.04 22.436 132.546 22.298 133.022 22.022C133.221 22.2213 133.321 22.4897 133.321 22.827C133.321 23.195 133.129 23.517 132.746 23.793C132.362 24.069 131.841 24.207 131.182 24.207ZM139.909 24.207C138.974 24.207 138.138 24.0307 137.402 23.678C136.666 23.31 136.091 22.8117 135.677 22.183C135.263 21.539 135.056 20.8183 135.056 20.021V16.617C135.056 15.8043 135.271 15.0683 135.7 14.409C136.145 13.7497 136.735 13.236 137.471 12.868C138.223 12.4847 139.035 12.293 139.909 12.293C140.783 12.293 141.581 12.477 142.301 12.845C143.037 13.213 143.612 13.719 144.026 14.363C144.456 15.007 144.67 15.7353 144.67 16.548V18.02C144.67 18.2653 144.578 18.4723 144.394 18.641C144.21 18.8097 143.988 18.894 143.727 18.894H137.011V19.929C137.011 20.711 137.257 21.3397 137.747 21.815C138.253 22.2903 138.974 22.528 139.909 22.528C140.845 22.528 141.558 22.321 142.048 21.907C142.539 21.493 142.784 20.9333 142.784 20.228C143.244 20.1973 143.628 20.2893 143.934 20.504C144.256 20.7033 144.417 21.0023 144.417 21.401C144.417 21.8917 144.203 22.3517 143.773 22.781C143.359 23.2103 142.807 23.5553 142.117 23.816C141.427 24.0767 140.691 24.207 139.909 24.207ZM142.807 17.33V16.548C142.807 15.7813 142.539 15.1603 142.002 14.685C141.481 14.1943 140.783 13.949 139.909 13.949C139.035 13.949 138.33 14.1943 137.793 14.685C137.272 15.1603 137.011 15.7813 137.011 16.548V17.33H142.807ZM151.028 24.207C150.246 24.207 149.51 24.092 148.82 23.862C148.13 23.6167 147.571 23.2717 147.141 22.827C146.727 22.3823 146.52 21.861 146.52 21.263C146.52 20.527 146.965 20.1283 147.854 20.067C148.008 20.9257 148.368 21.562 148.935 21.976C149.518 22.3747 150.254 22.574 151.143 22.574C152.033 22.574 152.723 22.4437 153.213 22.183C153.704 21.9223 153.949 21.5237 153.949 20.987C153.949 20.6037 153.85 20.297 153.65 20.067C153.451 19.8217 153.129 19.6147 152.684 19.446C152.255 19.262 151.634 19.0857 150.821 18.917C149.809 18.687 149.004 18.4417 148.406 18.181C147.808 17.9203 147.348 17.5753 147.026 17.146C146.72 16.7167 146.566 16.1493 146.566 15.444C146.566 14.846 146.75 14.3093 147.118 13.834C147.486 13.3433 147.992 12.9677 148.636 12.707C149.296 12.431 150.039 12.293 150.867 12.293C151.634 12.293 152.355 12.4003 153.029 12.615C153.719 12.8297 154.271 13.1363 154.685 13.535C155.115 13.9337 155.329 14.3937 155.329 14.915C155.329 15.2677 155.191 15.5513 154.915 15.766C154.639 15.9653 154.256 16.0803 153.765 16.111C153.719 15.4363 153.443 14.9073 152.937 14.524C152.447 14.1253 151.757 13.926 150.867 13.926C150.131 13.926 149.549 14.064 149.119 14.34C148.69 14.616 148.475 14.984 148.475 15.444C148.475 15.9347 148.675 16.3027 149.073 16.548C149.487 16.778 150.185 17.0003 151.166 17.215C152.776 17.537 153.957 17.9817 154.708 18.549C155.475 19.101 155.858 19.8907 155.858 20.918C155.858 21.9607 155.437 22.7733 154.593 23.356C153.75 23.9233 152.562 24.207 151.028 24.207Z" fill="white"/>
</g>
<defs>
<clipPath id="clip0_3761_3778">
<rect width="157" height="30" fill="white"/>
</clipPath>
<clipPath id="clip1_3761_3778">
<rect width="28" height="28" fill="white" transform="translate(0 1)"/>
</clipPath>
</defs>
</svg>
