<svg width="118" height="18" viewBox="0 0 118 18" fill="none" xmlns="http://www.w3.org/2000/svg">
<path d="M6.86 17.207C5.572 17.207 4.45267 17.023 3.502 16.655C2.56667 16.287 1.85367 15.7963 1.363 15.183C0.872333 14.5697 0.627 13.9103 0.627 13.205C0.627 12.6223 0.780333 12.1777 1.087 11.871C1.39367 11.549 1.86133 11.388 2.49 11.388C2.49 12.6913 2.881 13.688 3.663 14.378C4.445 15.0527 5.54133 15.39 6.952 15.39C8.30133 15.39 9.33633 15.1677 10.057 14.723C10.7777 14.263 11.138 13.5883 11.138 12.699C11.138 12.1623 11 11.7253 10.724 11.388C10.4633 11.0353 10.011 10.7363 9.367 10.491C8.73833 10.2303 7.826 9.96967 6.63 9.709C5.21933 9.40233 4.1 9.04967 3.272 8.651C2.444 8.237 1.83833 7.73867 1.455 7.156C1.07167 6.57333 0.88 5.85267 0.88 4.994C0.88 4.13533 1.11767 3.384 1.593 2.74C2.08367 2.08067 2.77367 1.57467 3.663 1.222C4.55233 0.869332 5.58733 0.692999 6.768 0.692999C7.88733 0.692999 8.884 0.853999 9.758 1.176C10.6473 1.48267 11.3373 1.92733 11.828 2.51C12.334 3.07733 12.587 3.72133 12.587 4.442C12.587 4.88667 12.4413 5.23933 12.15 5.5C11.874 5.74533 11.437 5.868 10.839 5.868C10.6703 4.70267 10.2563 3.85167 9.597 3.315C8.953 2.77833 8.01 2.51 6.768 2.51C5.572 2.51 4.652 2.72467 4.008 3.154C3.364 3.568 3.042 4.15833 3.042 4.925C3.042 5.46167 3.157 5.90633 3.387 6.259C3.63233 6.59633 4.03867 6.88767 4.606 7.133C5.18867 7.37833 6.00133 7.616 7.044 7.846C8.608 8.18333 9.83467 8.559 10.724 8.973C11.6287 9.387 12.2803 9.893 12.679 10.491C13.0777 11.089 13.277 11.825 13.277 12.699C13.277 14.0943 12.6943 15.1983 11.529 16.011C10.3637 16.8083 8.80733 17.207 6.86 17.207ZM20.0748 17.207C19.1394 17.207 18.3038 17.0307 17.5678 16.678C16.8318 16.31 16.2568 15.8117 15.8428 15.183C15.4288 14.539 15.2218 13.8183 15.2218 13.021V9.617C15.2218 8.80433 15.4364 8.06833 15.8658 7.409C16.3104 6.74967 16.9008 6.236 17.6368 5.868C18.3881 5.48467 19.2008 5.293 20.0748 5.293C20.9488 5.293 21.7461 5.477 22.4668 5.845C23.2028 6.213 23.7778 6.719 24.1918 7.363C24.6211 8.007 24.8358 8.73533 24.8358 9.548V11.02C24.8358 11.2653 24.7438 11.4723 24.5598 11.641C24.3758 11.8097 24.1534 11.894 23.8928 11.894H17.1768V12.929C17.1768 13.711 17.4221 14.3397 17.9128 14.815C18.4188 15.2903 19.1394 15.528 20.0748 15.528C21.0101 15.528 21.7231 15.321 22.2138 14.907C22.7044 14.493 22.9498 13.9333 22.9498 13.228C23.4098 13.1973 23.7931 13.2893 24.0998 13.504C24.4218 13.7033 24.5828 14.0023 24.5828 14.401C24.5828 14.8917 24.3681 15.3517 23.9388 15.781C23.5248 16.2103 22.9728 16.5553 22.2828 16.816C21.5928 17.0767 20.8568 17.207 20.0748 17.207ZM22.9728 10.33V9.548C22.9728 8.78133 22.7044 8.16033 22.1678 7.685C21.6464 7.19433 20.9488 6.949 20.0748 6.949C19.2008 6.949 18.4954 7.19433 17.9588 7.685C17.4374 8.16033 17.1768 8.78133 17.1768 9.548V10.33H22.9728ZM27.0308 6.995C27.0308 5.86033 27.6748 5.293 28.9628 5.293V6.765C28.8248 6.903 28.6638 7.11 28.4798 7.386L28.5718 7.478C29.0318 6.834 29.6298 6.31267 30.3658 5.914C31.1018 5.5 31.8992 5.293 32.7578 5.293C33.9998 5.293 34.9812 5.661 35.7018 6.397C36.4225 7.133 36.7828 8.08367 36.7828 9.249V15.735C36.7828 16.241 36.6142 16.6167 36.2768 16.862C35.9548 17.092 35.4565 17.207 34.7818 17.207V9.456C34.7818 8.72 34.5748 8.13733 34.1608 7.708C33.7468 7.27867 33.1182 7.064 32.2748 7.064C31.7075 7.064 31.1708 7.18667 30.6648 7.432C30.1742 7.662 29.7755 7.984 29.4688 8.398C29.1775 8.79667 29.0318 9.23367 29.0318 9.709V15.735C29.0318 16.241 28.8632 16.6167 28.5258 16.862C28.2038 17.092 27.7055 17.207 27.0308 17.207V6.995ZM43.1242 17.207C41.8055 17.207 40.7398 16.8543 39.9272 16.149C39.1298 15.4437 38.7312 14.516 38.7312 13.366C38.7312 12.2007 39.1528 11.2653 39.9962 10.56C40.8395 9.83933 41.9512 9.479 43.3312 9.479C44.8032 9.479 46.0145 10.0003 46.9652 11.043L47.0572 10.951C46.8885 10.767 46.6968 10.5753 46.4822 10.376V9.41C46.4822 8.628 46.2368 8.02233 45.7462 7.593C45.2555 7.16367 44.5578 6.949 43.6532 6.949C42.0432 6.949 40.8932 7.58533 40.2032 8.858C39.9578 8.73533 39.7508 8.57433 39.5822 8.375C39.4288 8.16033 39.3522 7.94567 39.3522 7.731C39.3522 7.317 39.5592 6.926 39.9732 6.558C40.3872 6.17467 40.9315 5.868 41.6062 5.638C42.2962 5.408 43.0168 5.293 43.7682 5.293C45.2248 5.293 46.3672 5.65333 47.1952 6.374C48.0385 7.09467 48.4602 8.09133 48.4602 9.364V15.666C48.4602 16.2027 48.3068 16.5937 48.0002 16.839C47.6935 17.0843 47.2105 17.207 46.5512 17.207V16.126C46.8732 15.7887 47.0495 15.5893 47.0802 15.528L46.9882 15.436C45.9915 16.6167 44.7035 17.207 43.1242 17.207ZM43.4692 15.62C44.4198 15.62 45.1635 15.4207 45.7002 15.022C46.2522 14.6233 46.5282 14.0713 46.5282 13.366C46.5282 12.6607 46.2598 12.101 45.7232 11.687C45.1865 11.273 44.4505 11.066 43.5152 11.066C42.6412 11.066 41.9512 11.273 41.4452 11.687C40.9545 12.0857 40.7092 12.6453 40.7092 13.366C40.7092 14.0867 40.9468 14.6463 41.4222 15.045C41.9128 15.4283 42.5952 15.62 43.4692 15.62ZM52.6278 3.568C52.1985 3.568 51.8382 3.43 51.5468 3.154C51.2555 2.878 51.1098 2.533 51.1098 2.119C51.1098 1.705 51.2555 1.36767 51.5468 1.107C51.8382 0.830999 52.1985 0.692999 52.6278 0.692999C53.0418 0.692999 53.3945 0.830999 53.6858 1.107C53.9772 1.36767 54.1228 1.705 54.1228 2.119C54.1228 2.533 53.9772 2.878 53.6858 3.154C53.3945 3.43 53.0418 3.568 52.6278 3.568ZM51.6158 6.765C51.6158 6.259 51.7768 5.891 52.0988 5.661C52.4362 5.41567 52.9422 5.293 53.6168 5.293V15.735C53.6168 16.241 53.4482 16.6167 53.1108 16.862C52.7888 17.092 52.2905 17.207 51.6158 17.207V6.765ZM62.3637 2.556C62.3637 1.97333 62.54 1.521 62.8927 1.199C63.2607 0.861666 63.7667 0.692999 64.4107 0.692999L73.3347 14.263L73.4957 14.125L72.8287 13.021V0.692999C73.534 0.692999 74.063 0.846332 74.4157 1.153C74.7837 1.45967 74.9677 1.90433 74.9677 2.487V15.505C74.9677 15.9957 74.7913 16.402 74.4387 16.724C74.1013 17.046 73.6643 17.207 73.1277 17.207L63.9967 3.338L63.8357 3.476L64.5027 4.58V15.413C64.5027 15.9957 64.3187 16.4403 63.9507 16.747C63.598 17.0537 63.069 17.207 62.3637 17.207V2.556ZM81.5246 17.207C80.5893 17.207 79.7383 17.0307 78.9716 16.678C78.2203 16.3253 77.63 15.85 77.2006 15.252C76.7866 14.6387 76.5796 13.9563 76.5796 13.205V9.433C76.5796 8.66633 76.7866 7.96867 77.2006 7.34C77.63 6.71133 78.2203 6.213 78.9716 5.845C79.723 5.477 80.574 5.293 81.5246 5.293C82.4753 5.293 83.3263 5.477 84.0776 5.845C84.8443 6.213 85.4346 6.71133 85.8486 7.34C86.278 7.96867 86.4926 8.66633 86.4926 9.433V13.205C86.4926 13.9563 86.278 14.6387 85.8486 15.252C85.4193 15.85 84.829 16.3253 84.0776 16.678C83.3263 17.0307 82.4753 17.207 81.5246 17.207ZM81.5246 15.482C82.4446 15.482 83.173 15.2673 83.7096 14.838C84.2616 14.3933 84.5376 13.8183 84.5376 13.113V9.502C84.5376 8.766 84.2616 8.168 83.7096 7.708C83.173 7.248 82.4446 7.018 81.5246 7.018C80.62 7.018 79.8916 7.248 79.3396 7.708C78.7876 8.168 78.5116 8.766 78.5116 9.502V13.113C78.5116 13.8183 78.78 14.3933 79.3166 14.838C79.8686 15.2673 80.6046 15.482 81.5246 15.482ZM92.6818 17.207C91.5931 17.207 90.7805 16.9003 90.2438 16.287C89.7071 15.6583 89.4388 14.838 89.4388 13.826V7.11H87.2998C87.2998 6.58867 87.4148 6.19 87.6448 5.914C87.8748 5.638 88.1891 5.5 88.5878 5.5H89.4618V3.315C89.4618 2.809 89.6228 2.441 89.9448 2.211C90.2821 1.96567 90.7805 1.843 91.4398 1.843V5.5H94.4988C94.4988 6.57333 94.0158 7.11 93.0498 7.11H91.4628V13.757C91.4628 14.3703 91.5701 14.8073 91.7848 15.068C92.0148 15.3133 92.4211 15.436 93.0038 15.436C93.5405 15.436 94.0465 15.298 94.5218 15.022C94.7211 15.2213 94.8208 15.4897 94.8208 15.827C94.8208 16.195 94.6291 16.517 94.2458 16.793C93.8625 17.069 93.3411 17.207 92.6818 17.207ZM101.409 17.207C100.474 17.207 99.6384 17.0307 98.9024 16.678C98.1664 16.31 97.5914 15.8117 97.1774 15.183C96.7634 14.539 96.5564 13.8183 96.5564 13.021V9.617C96.5564 8.80433 96.7711 8.06833 97.2004 7.409C97.6451 6.74967 98.2354 6.236 98.9714 5.868C99.7227 5.48467 100.535 5.293 101.409 5.293C102.283 5.293 103.081 5.477 103.801 5.845C104.537 6.213 105.112 6.719 105.526 7.363C105.956 8.007 106.17 8.73533 106.17 9.548V11.02C106.17 11.2653 106.078 11.4723 105.894 11.641C105.71 11.8097 105.488 11.894 105.227 11.894H98.5114V12.929C98.5114 13.711 98.7567 14.3397 99.2474 14.815C99.7534 15.2903 100.474 15.528 101.409 15.528C102.345 15.528 103.058 15.321 103.548 14.907C104.039 14.493 104.284 13.9333 104.284 13.228C104.744 13.1973 105.128 13.2893 105.434 13.504C105.756 13.7033 105.917 14.0023 105.917 14.401C105.917 14.8917 105.703 15.3517 105.273 15.781C104.859 16.2103 104.307 16.5553 103.617 16.816C102.927 17.0767 102.191 17.207 101.409 17.207ZM104.307 10.33V9.548C104.307 8.78133 104.039 8.16033 103.502 7.685C102.981 7.19433 102.283 6.949 101.409 6.949C100.535 6.949 99.8301 7.19433 99.2934 7.685C98.7721 8.16033 98.5114 8.78133 98.5114 9.548V10.33H104.307ZM112.528 17.207C111.746 17.207 111.01 17.092 110.32 16.862C109.63 16.6167 109.071 16.2717 108.641 15.827C108.227 15.3823 108.02 14.861 108.02 14.263C108.02 13.527 108.465 13.1283 109.354 13.067C109.508 13.9257 109.868 14.562 110.435 14.976C111.018 15.3747 111.754 15.574 112.643 15.574C113.533 15.574 114.223 15.4437 114.713 15.183C115.204 14.9223 115.449 14.5237 115.449 13.987C115.449 13.6037 115.35 13.297 115.15 13.067C114.951 12.8217 114.629 12.6147 114.184 12.446C113.755 12.262 113.134 12.0857 112.321 11.917C111.309 11.687 110.504 11.4417 109.906 11.181C109.308 10.9203 108.848 10.5753 108.526 10.146C108.22 9.71667 108.066 9.14933 108.066 8.444C108.066 7.846 108.25 7.30933 108.618 6.834C108.986 6.34333 109.492 5.96767 110.136 5.707C110.796 5.431 111.539 5.293 112.367 5.293C113.134 5.293 113.855 5.40033 114.529 5.615C115.219 5.82967 115.771 6.13633 116.185 6.535C116.615 6.93367 116.829 7.39367 116.829 7.915C116.829 8.26767 116.691 8.55133 116.415 8.766C116.139 8.96533 115.756 9.08033 115.265 9.111C115.219 8.43633 114.943 7.90733 114.437 7.524C113.947 7.12533 113.257 6.926 112.367 6.926C111.631 6.926 111.049 7.064 110.619 7.34C110.19 7.616 109.975 7.984 109.975 8.444C109.975 8.93467 110.175 9.30267 110.573 9.548C110.987 9.778 111.685 10.0003 112.666 10.215C114.276 10.537 115.457 10.9817 116.208 11.549C116.975 12.101 117.358 12.8907 117.358 13.918C117.358 14.9607 116.937 15.7733 116.093 16.356C115.25 16.9233 114.062 17.207 112.528 17.207Z" fill="#0E121B"/>
</svg>
