<svg width="20" height="20" viewBox="0 0 20 20" fill="none" xmlns="http://www.w3.org/2000/svg">
<path fill-rule="evenodd" clip-rule="evenodd" d="M10.0022 8.42888C8.89226 8.42888 7.99219 9.2924 7.99219 10.3585C7.99219 11.4239 8.89235 12.2881 10.0022 12.2881C11.112 12.2881 12.0122 11.4239 12.0122 10.3585C12.0122 9.2924 11.1122 8.42888 10.0022 8.42888ZM6.74219 10.3585C6.74219 8.62936 8.20214 7.22888 10.0022 7.22888C11.8023 7.22888 13.2622 8.62936 13.2622 10.3585C13.2622 12.0866 11.8023 13.4881 10.0022 13.4881C8.20201 13.4881 6.74219 12.0866 6.74219 10.3585Z" fill="#717784"/>
<path fill-rule="evenodd" clip-rule="evenodd" d="M4.14611 5.99548C5.64145 4.78181 7.70879 3.91687 10.0015 3.91687C12.2937 3.91687 14.3611 4.78113 15.8565 5.99451C17.3357 7.19468 18.3365 8.80808 18.3365 10.3585C18.3365 11.9089 17.3357 13.5222 15.8565 14.7224C14.3611 15.9358 12.2937 16.8001 10.0015 16.8001C7.70879 16.8001 5.64145 15.9351 4.14611 14.7214C2.66713 13.521 1.6665 11.9077 1.6665 10.3585C1.6665 8.80928 2.66713 7.19588 4.14611 5.99548ZM4.95315 6.91186C3.64172 7.97626 2.9165 9.28368 2.9165 10.3585C2.9165 11.4333 3.64172 12.7406 4.95315 13.8051C6.24824 14.8562 8.0359 15.6001 10.0015 15.6001C11.9668 15.6001 13.7545 14.8567 15.0496 13.8059C16.3611 12.7418 17.0865 11.4345 17.0865 10.3585C17.0865 9.28248 16.3611 7.97506 15.0496 6.91102C13.7545 5.8602 11.9668 5.11687 10.0015 5.11687C8.0359 5.11687 6.24824 5.86073 4.95315 6.91186Z" fill="#717784"/>
</svg>
