<svg width="240" height="54" viewBox="0 0 240 54" fill="none" xmlns="http://www.w3.org/2000/svg">
<g clip-path="url(#clip0_3061_440)">
<g clip-path="url(#clip1_3061_440)">
<path fill-rule="evenodd" clip-rule="evenodd" d="M27.3995 15.158C26.3677 13.1924 22.9741 13.8098 20.0411 14.5952C7.29135 19.2936 2.78055 28.8417 1.19575 34.5299C1.11735 34.6727 1.06975 34.8365 1.06555 35.0115C0.43835 37.4251 0.35295 39.0337 0.35155 39.0869C0.32775 39.6651 0.77715 40.1537 1.35535 40.1775C1.37075 40.1789 1.38615 40.1789 1.40155 40.1789C1.96015 40.1789 2.42495 39.7379 2.45015 39.1737C2.45715 39.0029 2.52155 37.8283 2.91775 36.0727C6.42895 35.9243 9.96395 34.6167 13.4359 32.1751C13.7075 31.9847 13.8727 31.6767 13.8825 31.3463C13.8923 31.0145 13.7439 30.6981 13.4849 30.4937L11.8833 29.2253L17.1389 28.7101C17.3531 28.6891 17.5547 28.6037 17.7185 28.4637C17.8319 28.3685 20.5073 26.0781 23.0525 23.4082C26.9235 19.3482 28.2633 16.8044 27.3995 15.158Z" fill="#335CFF"/>
<path fill-rule="evenodd" clip-rule="evenodd" d="M21.1785 38.0798H12.2045C11.6249 38.0798 11.1545 38.5502 11.1545 39.1298C11.1545 39.7094 11.6249 40.1798 12.2045 40.1798H21.1785C21.7581 40.1798 22.2285 39.7094 22.2285 39.1298C22.2285 38.5502 21.7581 38.0798 21.1785 38.0798Z" fill="#335CFF"/>
</g>
<path d="M45.36 36.207C44.072 36.207 42.9527 36.023 42.002 35.655C41.0667 35.287 40.3537 34.7963 39.863 34.183C39.3723 33.5697 39.127 32.9103 39.127 32.205C39.127 31.6223 39.2803 31.1777 39.587 30.871C39.8937 30.549 40.3613 30.388 40.99 30.388C40.99 31.6913 41.381 32.688 42.163 33.378C42.945 34.0527 44.0413 34.39 45.452 34.39C46.8013 34.39 47.8363 34.1677 48.557 33.723C49.2777 33.263 49.638 32.5883 49.638 31.699C49.638 31.1623 49.5 30.7253 49.224 30.388C48.9633 30.0353 48.511 29.7363 47.867 29.491C47.2383 29.2303 46.326 28.9697 45.13 28.709C43.7193 28.4023 42.6 28.0497 41.772 27.651C40.944 27.237 40.3383 26.7387 39.955 26.156C39.5717 25.5733 39.38 24.8527 39.38 23.994C39.38 23.1353 39.6177 22.384 40.093 21.74C40.5837 21.0807 41.2737 20.5747 42.163 20.222C43.0523 19.8693 44.0873 19.693 45.268 19.693C46.3873 19.693 47.384 19.854 48.258 20.176C49.1473 20.4827 49.8373 20.9273 50.328 21.51C50.834 22.0773 51.087 22.7213 51.087 23.442C51.087 23.8867 50.9413 24.2393 50.65 24.5C50.374 24.7453 49.937 24.868 49.339 24.868C49.1703 23.7027 48.7563 22.8517 48.097 22.315C47.453 21.7783 46.51 21.51 45.268 21.51C44.072 21.51 43.152 21.7247 42.508 22.154C41.864 22.568 41.542 23.1583 41.542 23.925C41.542 24.4617 41.657 24.9063 41.887 25.259C42.1323 25.5963 42.5387 25.8877 43.106 26.133C43.6887 26.3783 44.5013 26.616 45.544 26.846C47.108 27.1833 48.3347 27.559 49.224 27.973C50.1287 28.387 50.7803 28.893 51.179 29.491C51.5777 30.089 51.777 30.825 51.777 31.699C51.777 33.0943 51.1943 34.1983 50.029 35.011C48.8637 35.8083 47.3073 36.207 45.36 36.207ZM58.5748 36.207C57.6394 36.207 56.8038 36.0307 56.0678 35.678C55.3318 35.31 54.7568 34.8117 54.3428 34.183C53.9288 33.539 53.7218 32.8183 53.7218 32.021V28.617C53.7218 27.8043 53.9364 27.0683 54.3658 26.409C54.8104 25.7497 55.4008 25.236 56.1368 24.868C56.8881 24.4847 57.7008 24.293 58.5748 24.293C59.4488 24.293 60.2461 24.477 60.9668 24.845C61.7028 25.213 62.2778 25.719 62.6918 26.363C63.1211 27.007 63.3358 27.7353 63.3358 28.548V30.02C63.3358 30.2653 63.2438 30.4723 63.0598 30.641C62.8758 30.8097 62.6534 30.894 62.3928 30.894H55.6768V31.929C55.6768 32.711 55.9221 33.3397 56.4128 33.815C56.9188 34.2903 57.6394 34.528 58.5748 34.528C59.5101 34.528 60.2231 34.321 60.7138 33.907C61.2044 33.493 61.4498 32.9333 61.4498 32.228C61.9098 32.1973 62.2931 32.2893 62.5998 32.504C62.9218 32.7033 63.0828 33.0023 63.0828 33.401C63.0828 33.8917 62.8681 34.3517 62.4388 34.781C62.0248 35.2103 61.4728 35.5553 60.7828 35.816C60.0928 36.0767 59.3568 36.207 58.5748 36.207ZM61.4728 29.33V28.548C61.4728 27.7813 61.2044 27.1603 60.6678 26.685C60.1464 26.1943 59.4488 25.949 58.5748 25.949C57.7008 25.949 56.9954 26.1943 56.4588 26.685C55.9374 27.1603 55.6768 27.7813 55.6768 28.548V29.33H61.4728ZM65.5308 25.995C65.5308 24.8603 66.1748 24.293 67.4628 24.293V25.765C67.3248 25.903 67.1638 26.11 66.9798 26.386L67.0718 26.478C67.5318 25.834 68.1298 25.3127 68.8658 24.914C69.6018 24.5 70.3992 24.293 71.2578 24.293C72.4998 24.293 73.4812 24.661 74.2018 25.397C74.9225 26.133 75.2828 27.0837 75.2828 28.249V34.735C75.2828 35.241 75.1142 35.6167 74.7768 35.862C74.4548 36.092 73.9565 36.207 73.2818 36.207V28.456C73.2818 27.72 73.0748 27.1373 72.6608 26.708C72.2468 26.2787 71.6182 26.064 70.7748 26.064C70.2075 26.064 69.6708 26.1867 69.1648 26.432C68.6742 26.662 68.2755 26.984 67.9688 27.398C67.6775 27.7967 67.5318 28.2337 67.5318 28.709V34.735C67.5318 35.241 67.3632 35.6167 67.0258 35.862C66.7038 36.092 66.2055 36.207 65.5308 36.207V25.995ZM81.6242 36.207C80.3055 36.207 79.2398 35.8543 78.4272 35.149C77.6298 34.4437 77.2312 33.516 77.2312 32.366C77.2312 31.2007 77.6528 30.2653 78.4962 29.56C79.3395 28.8393 80.4512 28.479 81.8312 28.479C83.3032 28.479 84.5145 29.0003 85.4652 30.043L85.5572 29.951C85.3885 29.767 85.1968 29.5753 84.9822 29.376V28.41C84.9822 27.628 84.7368 27.0223 84.2462 26.593C83.7555 26.1637 83.0578 25.949 82.1532 25.949C80.5432 25.949 79.3932 26.5853 78.7032 27.858C78.4578 27.7353 78.2508 27.5743 78.0822 27.375C77.9288 27.1603 77.8522 26.9457 77.8522 26.731C77.8522 26.317 78.0592 25.926 78.4732 25.558C78.8872 25.1747 79.4315 24.868 80.1062 24.638C80.7962 24.408 81.5168 24.293 82.2682 24.293C83.7248 24.293 84.8672 24.6533 85.6952 25.374C86.5385 26.0947 86.9602 27.0913 86.9602 28.364V34.666C86.9602 35.2027 86.8068 35.5937 86.5002 35.839C86.1935 36.0843 85.7105 36.207 85.0512 36.207V35.126C85.3732 34.7887 85.5495 34.5893 85.5802 34.528L85.4882 34.436C84.4915 35.6167 83.2035 36.207 81.6242 36.207ZM81.9692 34.62C82.9198 34.62 83.6635 34.4207 84.2002 34.022C84.7522 33.6233 85.0282 33.0713 85.0282 32.366C85.0282 31.6607 84.7598 31.101 84.2232 30.687C83.6865 30.273 82.9505 30.066 82.0152 30.066C81.1412 30.066 80.4512 30.273 79.9452 30.687C79.4545 31.0857 79.2092 31.6453 79.2092 32.366C79.2092 33.0867 79.4468 33.6463 79.9222 34.045C80.4128 34.4283 81.0952 34.62 81.9692 34.62ZM91.1278 22.568C90.6985 22.568 90.3382 22.43 90.0468 22.154C89.7555 21.878 89.6098 21.533 89.6098 21.119C89.6098 20.705 89.7555 20.3677 90.0468 20.107C90.3382 19.831 90.6985 19.693 91.1278 19.693C91.5418 19.693 91.8945 19.831 92.1858 20.107C92.4772 20.3677 92.6228 20.705 92.6228 21.119C92.6228 21.533 92.4772 21.878 92.1858 22.154C91.8945 22.43 91.5418 22.568 91.1278 22.568ZM90.1158 25.765C90.1158 25.259 90.2768 24.891 90.5988 24.661C90.9362 24.4157 91.4422 24.293 92.1168 24.293V34.735C92.1168 35.241 91.9482 35.6167 91.6108 35.862C91.2888 36.092 90.7905 36.207 90.1158 36.207V25.765ZM100.864 21.556C100.864 20.9733 101.04 20.521 101.393 20.199C101.761 19.8617 102.267 19.693 102.911 19.693L111.835 33.263L111.996 33.125L111.329 32.021V19.693C112.034 19.693 112.563 19.8463 112.916 20.153C113.284 20.4597 113.468 20.9043 113.468 21.487V34.505C113.468 34.9957 113.291 35.402 112.939 35.724C112.601 36.046 112.164 36.207 111.628 36.207L102.497 22.338L102.336 22.476L103.003 23.58V34.413C103.003 34.9957 102.819 35.4403 102.451 35.747C102.098 36.0537 101.569 36.207 100.864 36.207V21.556ZM120.025 36.207C119.089 36.207 118.238 36.0307 117.472 35.678C116.72 35.3253 116.13 34.85 115.701 34.252C115.287 33.6387 115.08 32.9563 115.08 32.205V28.433C115.08 27.6663 115.287 26.9687 115.701 26.34C116.13 25.7113 116.72 25.213 117.472 24.845C118.223 24.477 119.074 24.293 120.025 24.293C120.975 24.293 121.826 24.477 122.578 24.845C123.344 25.213 123.935 25.7113 124.349 26.34C124.778 26.9687 124.993 27.6663 124.993 28.433V32.205C124.993 32.9563 124.778 33.6387 124.349 34.252C123.919 34.85 123.329 35.3253 122.578 35.678C121.826 36.0307 120.975 36.207 120.025 36.207ZM120.025 34.482C120.945 34.482 121.673 34.2673 122.21 33.838C122.762 33.3933 123.038 32.8183 123.038 32.113V28.502C123.038 27.766 122.762 27.168 122.21 26.708C121.673 26.248 120.945 26.018 120.025 26.018C119.12 26.018 118.392 26.248 117.84 26.708C117.288 27.168 117.012 27.766 117.012 28.502V32.113C117.012 32.8183 117.28 33.3933 117.817 33.838C118.369 34.2673 119.105 34.482 120.025 34.482ZM131.182 36.207C130.093 36.207 129.28 35.9003 128.744 35.287C128.207 34.6583 127.939 33.838 127.939 32.826V26.11H125.8C125.8 25.5887 125.915 25.19 126.145 24.914C126.375 24.638 126.689 24.5 127.088 24.5H127.962V22.315C127.962 21.809 128.123 21.441 128.445 21.211C128.782 20.9657 129.28 20.843 129.94 20.843V24.5H132.999C132.999 25.5733 132.516 26.11 131.55 26.11H129.963V32.757C129.963 33.3703 130.07 33.8073 130.285 34.068C130.515 34.3133 130.921 34.436 131.504 34.436C132.04 34.436 132.546 34.298 133.022 34.022C133.221 34.2213 133.321 34.4897 133.321 34.827C133.321 35.195 133.129 35.517 132.746 35.793C132.362 36.069 131.841 36.207 131.182 36.207ZM139.909 36.207C138.974 36.207 138.138 36.0307 137.402 35.678C136.666 35.31 136.091 34.8117 135.677 34.183C135.263 33.539 135.056 32.8183 135.056 32.021V28.617C135.056 27.8043 135.271 27.0683 135.7 26.409C136.145 25.7497 136.735 25.236 137.471 24.868C138.223 24.4847 139.035 24.293 139.909 24.293C140.783 24.293 141.581 24.477 142.301 24.845C143.037 25.213 143.612 25.719 144.026 26.363C144.456 27.007 144.67 27.7353 144.67 28.548V30.02C144.67 30.2653 144.578 30.4723 144.394 30.641C144.21 30.8097 143.988 30.894 143.727 30.894H137.011V31.929C137.011 32.711 137.257 33.3397 137.747 33.815C138.253 34.2903 138.974 34.528 139.909 34.528C140.845 34.528 141.558 34.321 142.048 33.907C142.539 33.493 142.784 32.9333 142.784 32.228C143.244 32.1973 143.628 32.2893 143.934 32.504C144.256 32.7033 144.417 33.0023 144.417 33.401C144.417 33.8917 144.203 34.3517 143.773 34.781C143.359 35.2103 142.807 35.5553 142.117 35.816C141.427 36.0767 140.691 36.207 139.909 36.207ZM142.807 29.33V28.548C142.807 27.7813 142.539 27.1603 142.002 26.685C141.481 26.1943 140.783 25.949 139.909 25.949C139.035 25.949 138.33 26.1943 137.793 26.685C137.272 27.1603 137.011 27.7813 137.011 28.548V29.33H142.807ZM151.028 36.207C150.246 36.207 149.51 36.092 148.82 35.862C148.13 35.6167 147.571 35.2717 147.141 34.827C146.727 34.3823 146.52 33.861 146.52 33.263C146.52 32.527 146.965 32.1283 147.854 32.067C148.008 32.9257 148.368 33.562 148.935 33.976C149.518 34.3747 150.254 34.574 151.143 34.574C152.033 34.574 152.723 34.4437 153.213 34.183C153.704 33.9223 153.949 33.5237 153.949 32.987C153.949 32.6037 153.85 32.297 153.65 32.067C153.451 31.8217 153.129 31.6147 152.684 31.446C152.255 31.262 151.634 31.0857 150.821 30.917C149.809 30.687 149.004 30.4417 148.406 30.181C147.808 29.9203 147.348 29.5753 147.026 29.146C146.72 28.7167 146.566 28.1493 146.566 27.444C146.566 26.846 146.75 26.3093 147.118 25.834C147.486 25.3433 147.992 24.9677 148.636 24.707C149.296 24.431 150.039 24.293 150.867 24.293C151.634 24.293 152.355 24.4003 153.029 24.615C153.719 24.8297 154.271 25.1363 154.685 25.535C155.115 25.9337 155.329 26.3937 155.329 26.915C155.329 27.2677 155.191 27.5513 154.915 27.766C154.639 27.9653 154.256 28.0803 153.765 28.111C153.719 27.4363 153.443 26.9073 152.937 26.524C152.447 26.1253 151.757 25.926 150.867 25.926C150.131 25.926 149.549 26.064 149.119 26.34C148.69 26.616 148.475 26.984 148.475 27.444C148.475 27.9347 148.675 28.3027 149.073 28.548C149.487 28.778 150.185 29.0003 151.166 29.215C152.776 29.537 153.957 29.9817 154.708 30.549C155.475 31.101 155.858 31.8907 155.858 32.918C155.858 33.9607 155.437 34.7733 154.593 35.356C153.75 35.9233 152.562 36.207 151.028 36.207Z" fill="#0E121B"/>
</g>
<defs>
<clipPath id="clip0_3061_440">
<rect width="157" height="30" fill="white" transform="translate(0 12)"/>
</clipPath>
<clipPath id="clip1_3061_440">
<rect width="28" height="28" fill="white" transform="translate(0 13)"/>
</clipPath>
</defs>
</svg>
