<svg width="42" height="43" viewBox="0 0 42 43" fill="none" xmlns="http://www.w3.org/2000/svg">
<path d="M21 23C24.7266 23 27.75 19.9766 27.75 16.25C27.75 12.5234 24.7266 9.5 21 9.5C17.2734 9.5 14.25 12.5234 14.25 16.25C14.25 19.9766 17.2734 23 21 23ZM27 24.5H24.4172C23.3766 24.9781 22.2188 25.25 21 25.25C19.7812 25.25 18.6281 24.9781 17.5828 24.5H15C11.6859 24.5 9 27.1859 9 30.5V31.25C9 32.4922 10.0078 33.5 11.25 33.5H30.75C31.9922 33.5 33 32.4922 33 31.25V30.5C33 27.1859 30.3141 24.5 27 24.5Z" fill="#717784"/>
</svg>
