<svg width="58" height="18" viewBox="0 0 58 18" fill="none" xmlns="http://www.w3.org/2000/svg">
<rect width="58" height="18" rx="4" fill="#E0E4EA"/>
<path d="M14.0795 7H13.0227C12.9602 6.69602 12.8509 6.42898 12.6946 6.19886C12.5412 5.96875 12.3537 5.77557 12.1321 5.61932C11.9134 5.46023 11.6705 5.34091 11.4034 5.26136C11.1364 5.18182 10.858 5.14205 10.5682 5.14205C10.0398 5.14205 9.56108 5.27557 9.1321 5.54261C8.70597 5.80966 8.36648 6.20312 8.11364 6.72301C7.86364 7.2429 7.73864 7.88068 7.73864 8.63636C7.73864 9.39205 7.86364 10.0298 8.11364 10.5497C8.36648 11.0696 8.70597 11.4631 9.1321 11.7301C9.56108 11.9972 10.0398 12.1307 10.5682 12.1307C10.858 12.1307 11.1364 12.0909 11.4034 12.0114C11.6705 11.9318 11.9134 11.8139 12.1321 11.6577C12.3537 11.4986 12.5412 11.304 12.6946 11.0739C12.8509 10.8409 12.9602 10.5739 13.0227 10.2727H14.0795C14 10.7187 13.8551 11.1179 13.6449 11.4702C13.4347 11.8224 13.1733 12.1222 12.8608 12.3693C12.5483 12.6136 12.1974 12.7997 11.8082 12.9276C11.4219 13.0554 11.0085 13.1193 10.5682 13.1193C9.82386 13.1193 9.16193 12.9375 8.58239 12.5739C8.00284 12.2102 7.54688 11.6932 7.21449 11.0227C6.8821 10.3523 6.71591 9.55682 6.71591 8.63636C6.71591 7.71591 6.8821 6.92045 7.21449 6.25C7.54688 5.57955 8.00284 5.0625 8.58239 4.69886C9.16193 4.33523 9.82386 4.15341 10.5682 4.15341C11.0085 4.15341 11.4219 4.21733 11.8082 4.34517C12.1974 4.47301 12.5483 4.66051 12.8608 4.90767C13.1733 5.15199 13.4347 5.45028 13.6449 5.80256C13.8551 6.15199 14 6.55114 14.0795 7ZM18.11 13.1364C17.5191 13.1364 17.0006 12.9957 16.5546 12.7145C16.1114 12.4332 15.7648 12.0398 15.5148 11.5341C15.2677 11.0284 15.1441 10.4375 15.1441 9.76136C15.1441 9.07955 15.2677 8.48437 15.5148 7.97585C15.7648 7.46733 16.1114 7.07244 16.5546 6.79119C17.0006 6.50994 17.5191 6.36932 18.11 6.36932C18.7009 6.36932 19.218 6.50994 19.6612 6.79119C20.1072 7.07244 20.4538 7.46733 20.7009 7.97585C20.9509 8.48437 21.0759 9.07955 21.0759 9.76136C21.0759 10.4375 20.9509 11.0284 20.7009 11.5341C20.4538 12.0398 20.1072 12.4332 19.6612 12.7145C19.218 12.9957 18.7009 13.1364 18.11 13.1364ZM18.11 12.233C18.5589 12.233 18.9282 12.1179 19.218 11.8878C19.5077 11.6577 19.7222 11.3551 19.8614 10.9801C20.0006 10.6051 20.0702 10.1989 20.0702 9.76136C20.0702 9.32386 20.0006 8.91619 19.8614 8.53835C19.7222 8.16051 19.5077 7.85511 19.218 7.62216C18.9282 7.3892 18.5589 7.27273 18.11 7.27273C17.6612 7.27273 17.2918 7.3892 17.0021 7.62216C16.7123 7.85511 16.4978 8.16051 16.3586 8.53835C16.2194 8.91619 16.1498 9.32386 16.1498 9.76136C16.1498 10.1989 16.2194 10.6051 16.3586 10.9801C16.4978 11.3551 16.7123 11.6577 17.0021 11.8878C17.2918 12.1179 17.6612 12.233 18.11 12.233ZM25.0702 13.1364C24.4793 13.1364 23.9608 12.9957 23.5148 12.7145C23.0716 12.4332 22.725 12.0398 22.475 11.5341C22.2278 11.0284 22.1043 10.4375 22.1043 9.76136C22.1043 9.07955 22.2278 8.48437 22.475 7.97585C22.725 7.46733 23.0716 7.07244 23.5148 6.79119C23.9608 6.50994 24.4793 6.36932 25.0702 6.36932C25.6611 6.36932 26.1781 6.50994 26.6213 6.79119C27.0673 7.07244 27.4139 7.46733 27.6611 7.97585C27.9111 8.48437 28.0361 9.07955 28.0361 9.76136C28.0361 10.4375 27.9111 11.0284 27.6611 11.5341C27.4139 12.0398 27.0673 12.4332 26.6213 12.7145C26.1781 12.9957 25.6611 13.1364 25.0702 13.1364ZM25.0702 12.233C25.519 12.233 25.8884 12.1179 26.1781 11.8878C26.4679 11.6577 26.6824 11.3551 26.8216 10.9801C26.9608 10.6051 27.0304 10.1989 27.0304 9.76136C27.0304 9.32386 26.9608 8.91619 26.8216 8.53835C26.6824 8.16051 26.4679 7.85511 26.1781 7.62216C25.8884 7.3892 25.519 7.27273 25.0702 7.27273C24.6213 7.27273 24.252 7.3892 23.9622 7.62216C23.6724 7.85511 23.458 8.16051 23.3188 8.53835C23.1795 8.91619 23.1099 9.32386 23.1099 9.76136C23.1099 10.1989 23.1795 10.6051 23.3188 10.9801C23.458 11.3551 23.6724 11.6577 23.9622 11.8878C24.252 12.1179 24.6213 12.233 25.0702 12.233ZM30.3087 10.6136L30.2917 9.36932H30.4962L33.3599 6.45455H34.6042L31.5531 9.53977H31.4678L30.3087 10.6136ZM29.3712 13V4.27273H30.3769V13H29.3712ZM33.5303 13L30.9735 9.76136L31.6894 9.0625L34.8087 13H33.5303ZM35.6986 13V6.45455H36.7043V13H35.6986ZM36.2099 5.36364C36.0139 5.36364 35.8449 5.29688 35.7028 5.16335C35.5636 5.02983 35.494 4.86932 35.494 4.68182C35.494 4.49432 35.5636 4.33381 35.7028 4.20028C35.8449 4.06676 36.0139 4 36.2099 4C36.406 4 36.5736 4.06676 36.7128 4.20028C36.8548 4.33381 36.9259 4.49432 36.9259 4.68182C36.9259 4.86932 36.8548 5.02983 36.7128 5.16335C36.5736 5.29688 36.406 5.36364 36.2099 5.36364ZM39.3519 9.0625V13H38.3462V6.45455H39.3178V7.47727H39.4031C39.5565 7.14489 39.7894 6.87784 40.1019 6.67614C40.4144 6.47159 40.8178 6.36932 41.3121 6.36932C41.7553 6.36932 42.1431 6.46023 42.4755 6.64205C42.8079 6.82102 43.0664 7.09375 43.2511 7.46023C43.4357 7.82386 43.5281 8.28409 43.5281 8.84091V13H42.5224V8.90909C42.5224 8.39489 42.3888 7.99432 42.1218 7.70739C41.8548 7.41761 41.4883 7.27273 41.0224 7.27273C40.7013 7.27273 40.4144 7.34233 40.1616 7.48153C39.9116 7.62074 39.7141 7.82386 39.5692 8.09091C39.4244 8.35795 39.3519 8.68182 39.3519 9.0625ZM47.8078 15.5909C47.322 15.5909 46.9044 15.5284 46.555 15.4034C46.2055 15.2812 45.9143 15.1193 45.6814 14.9176C45.4513 14.7188 45.268 14.5057 45.1317 14.2784L45.9328 13.7159C46.0237 13.8352 46.1388 13.9716 46.278 14.125C46.4172 14.2812 46.6075 14.4162 46.849 14.5298C47.0933 14.6463 47.4129 14.7045 47.8078 14.7045C48.3362 14.7045 48.7723 14.5767 49.1161 14.321C49.4598 14.0653 49.6317 13.6648 49.6317 13.1193V11.7898H49.5464C49.4726 11.9091 49.3675 12.0568 49.2311 12.233C49.0976 12.4062 48.9044 12.5611 48.6516 12.6974C48.4016 12.831 48.0635 12.8977 47.6374 12.8977C47.1089 12.8977 46.6345 12.7727 46.2141 12.5227C45.7964 12.2727 45.4655 11.9091 45.2212 11.4318C44.9797 10.9545 44.8589 10.375 44.8589 9.69318C44.8589 9.02273 44.9768 8.43892 45.2126 7.94176C45.4484 7.44176 45.7766 7.0554 46.197 6.78267C46.6175 6.5071 47.1033 6.36932 47.6544 6.36932C48.0805 6.36932 48.4186 6.44034 48.6686 6.58239C48.9214 6.72159 49.1146 6.88068 49.2482 7.05966C49.3845 7.2358 49.4896 7.38068 49.5635 7.49432H49.6658V6.45455H50.6374V13.1875C50.6374 13.75 50.5095 14.2074 50.2538 14.5597C50.001 14.9148 49.6601 15.1747 49.2311 15.3395C48.805 15.5071 48.3305 15.5909 47.8078 15.5909ZM47.7737 11.9943C48.1771 11.9943 48.518 11.902 48.7964 11.7173C49.0749 11.5327 49.2865 11.267 49.4314 10.9205C49.5763 10.5739 49.6487 10.1591 49.6487 9.67614C49.6487 9.20455 49.5777 8.78835 49.4357 8.42756C49.2936 8.06676 49.0834 7.78409 48.805 7.57955C48.5266 7.375 48.1828 7.27273 47.7737 7.27273C47.3476 7.27273 46.9925 7.38068 46.7084 7.59659C46.4271 7.8125 46.2155 8.10227 46.0734 8.46591C45.9342 8.82955 45.8646 9.23295 45.8646 9.67614C45.8646 10.1307 45.9357 10.5327 46.0777 10.8821C46.2226 11.2287 46.4357 11.5014 46.7169 11.7003C47.001 11.8963 47.3533 11.9943 47.7737 11.9943Z" fill="#0E121B"/>
</svg>
