<svg width="29" height="29" viewBox="0 0 29 29" fill="none" xmlns="http://www.w3.org/2000/svg">
<g clip-path="url(#clip0_3763_13535)">
<path fill-rule="evenodd" clip-rule="evenodd" d="M27.8995 2.65785C26.8677 0.692253 23.4741 1.30965 20.5411 2.09505C7.79136 6.79345 3.28056 16.3415 1.69576 22.0297C1.61736 22.1725 1.56976 22.3363 1.56556 22.5113C0.938358 24.9249 0.852958 26.5335 0.851558 26.5867C0.827758 27.1649 1.27716 27.6535 1.85536 27.6773C1.87076 27.6787 1.88616 27.6787 1.90156 27.6787C2.46016 27.6787 2.92496 27.2377 2.95016 26.6735C2.95716 26.5027 3.02156 25.3281 3.41776 23.5725C6.92896 23.4241 10.464 22.1165 13.9359 19.6749C14.2075 19.4845 14.3727 19.1765 14.3825 18.8461C14.3923 18.5143 14.2439 18.1979 13.9849 17.9935L12.3833 16.7251L17.6389 16.2099C17.8531 16.1889 18.0547 16.1035 18.2185 15.9635C18.3319 15.8683 21.0073 13.5779 23.5525 10.9081C27.4235 6.84805 28.7633 4.30425 27.8995 2.65785Z" fill="#335CFF"/>
<path fill-rule="evenodd" clip-rule="evenodd" d="M21.6785 25.5801H12.7045C12.1249 25.5801 11.6545 26.0505 11.6545 26.6301C11.6545 27.2097 12.1249 27.6801 12.7045 27.6801H21.6785C22.2581 27.6801 22.7285 27.2097 22.7285 26.6301C22.7285 26.0505 22.2581 25.5801 21.6785 25.5801Z" fill="#335CFF"/>
</g>
<defs>
<clipPath id="clip0_3763_13535">
<rect width="28" height="28" fill="white" transform="translate(0.5 0.5)"/>
</clipPath>
</defs>
</svg>
