<svg width="42" height="43" viewBox="0 0 42 43" fill="none" xmlns="http://www.w3.org/2000/svg">
<path fill-rule="evenodd" clip-rule="evenodd" d="M17.9589 14.0286C17.9589 12.6329 19.0904 11.5 20.4876 11.5H21.661C21.6804 11.5 21.6984 11.5005 21.7073 11.5007L21.7089 11.5007C21.7176 11.5009 21.7198 11.501 21.7198 11.501C21.7279 11.501 21.7356 11.5011 21.7437 11.5014C23.1398 11.5467 24.2361 12.7096 24.2024 14.1033C24.206 14.2671 24.2515 14.4274 24.3354 14.5703L24.3382 14.5748L24.3399 14.5776C24.3409 14.5793 24.3419 14.581 24.3429 14.5828C24.6319 15.0714 25.263 15.2328 25.751 14.9433L25.7604 14.9377C26.9745 14.241 28.5236 14.6561 29.2251 15.8685L29.2256 15.8695L29.8085 16.8804C29.8228 16.9052 29.8356 16.9308 29.8469 16.9569C30.4855 18.1577 30.0627 19.6553 28.8801 20.3434L28.875 20.3464C28.719 20.4355 28.589 20.5656 28.4999 20.7221L28.4912 20.7368L28.4899 20.7389C28.2108 21.2285 28.3782 21.851 28.8637 22.1354C28.8646 22.1359 28.8654 22.1364 28.8664 22.1368C28.8707 22.1392 28.8755 22.1418 28.8806 22.1447C28.8907 22.1504 28.9038 22.1581 28.9188 22.1677C30.1086 22.8775 30.5063 24.4144 29.8064 25.6134L29.8021 25.6208L29.1879 26.6457C28.4858 27.8525 26.9397 28.268 25.7276 27.5717C25.5748 27.485 25.405 27.437 25.2315 27.4311H25.2211C24.6544 27.4363 24.1983 27.8996 24.2022 28.4662L24.2023 28.4766C24.1926 29.8736 23.0576 31 21.661 31H20.4915C19.0895 31 17.9526 29.8651 17.9502 28.4642C17.9481 28.2998 17.9038 28.138 17.8214 27.9948C17.8152 27.9852 17.8093 27.9755 17.8036 27.9657C17.5196 27.4768 16.8924 27.3111 16.4041 27.5957C16.4039 27.5958 16.4043 27.5956 16.4041 27.5957L16.4006 27.5978C16.3952 27.601 16.3883 27.6051 16.38 27.6096C16.3774 27.6111 16.3745 27.6127 16.3714 27.6143C15.1452 28.2863 13.6079 27.8419 12.9289 26.621L12.3511 25.625C12.3494 25.6223 12.3476 25.6195 12.3459 25.6166C12.342 25.6102 12.3378 25.603 12.3333 25.5951C11.6419 24.3844 12.0607 22.8421 13.2705 22.148C13.5927 21.9616 13.7907 21.6178 13.7907 21.2471C13.7907 20.8748 13.5922 20.5309 13.2697 20.3448L13.2687 20.3442C12.0582 19.643 11.6409 18.093 12.3398 16.8788L12.3489 16.8635L12.9707 15.8404C13.6742 14.6339 15.2193 14.2221 16.4309 14.9173L16.4396 14.9223C16.5858 15.0089 16.7506 15.0551 16.9186 15.0572C17.4852 15.0575 17.9486 14.6026 17.9589 14.0354V14.0286ZM24.3449 14.5863C24.3455 14.5874 24.346 14.5882 24.3456 14.5876L24.3449 14.5863ZM20.4876 13C19.9193 13 19.459 13.4608 19.459 14.0286V14.0517C19.4396 15.443 18.3038 16.5613 16.9116 16.5572L16.9066 16.5572C16.4742 16.553 16.0522 16.4349 15.6809 16.2164C15.1831 15.9332 14.551 16.1042 14.2646 16.5992L14.2563 16.6131L13.636 17.6339C13.3556 18.1293 13.5266 18.7601 14.0205 19.0462L13.6446 19.6952L14.0195 19.0456C14.8063 19.4997 15.2907 20.3389 15.2907 21.2471C15.2907 22.1545 14.8061 22.9936 14.0195 23.4476L14.0175 23.4487C13.5295 23.7284 13.3575 24.3473 13.6284 24.8381C13.6289 24.8388 13.6294 24.8396 13.6298 24.8404C13.6333 24.846 13.637 24.8522 13.6408 24.859L14.2301 25.8747L14.2381 25.8888C14.5142 26.3892 15.1411 26.5733 15.6438 26.3026C15.6477 26.3003 15.6522 26.2977 15.6573 26.2948C16.8539 25.6036 18.3842 26.0044 19.0886 27.1918C19.0893 27.1929 19.09 27.1939 19.0906 27.1949C19.097 27.205 19.1026 27.2144 19.1038 27.2164L19.1063 27.2206C19.327 27.5936 19.446 28.0185 19.4502 28.4525V28.4597C19.4502 29.0338 19.9159 29.5 20.4915 29.5H21.661C22.2322 29.5 22.6961 29.0407 22.7022 28.4703C22.6959 27.0771 23.8193 25.9408 25.213 25.9312L25.2182 25.9311H25.2425L25.2618 25.9314C25.6883 25.9424 26.1026 26.0593 26.4705 26.2686L26.4738 26.2705C26.9701 26.5561 27.6052 26.386 27.8927 25.8891L27.8984 25.8791L28.5129 24.854C28.7967 24.3637 28.6309 23.7363 28.1414 23.4506C28.1379 23.4486 28.1344 23.4465 28.131 23.4444C26.9216 22.7546 26.4973 21.2173 27.1815 20.0054C27.1909 19.9881 27.1988 19.9752 27.2026 19.9689C27.424 19.5849 27.7441 19.2657 28.1277 19.0458C28.6204 18.7577 28.789 18.1277 28.5072 17.6333C28.4959 17.6136 28.4856 17.5934 28.4763 17.5729L27.9267 16.6197C27.9267 16.6195 27.9268 16.6198 27.9267 16.6197C27.6403 16.1249 27.0084 15.9537 26.5107 16.2367C25.3115 16.944 23.7648 16.5476 23.0538 15.3497L23.0507 15.3446L23.0491 15.3419C23.0481 15.3402 23.0471 15.3385 23.0461 15.3368C22.8256 14.9642 22.7065 14.5403 22.7022 14.1059C22.7021 14.0956 22.7023 14.0853 22.7026 14.075C22.7206 13.5028 22.274 13.0238 21.7032 13.0009C21.6904 13.0007 21.6794 13.0004 21.673 13.0003L21.6714 13.0003C21.6631 13 21.6607 13 21.6605 13H20.4876ZM15.6231 26.3151C15.6223 26.3156 15.6236 26.3148 15.6252 26.3138L15.6231 26.3151ZM21.0783 19.5305C20.1293 19.5305 19.3608 20.299 19.3608 21.248C19.3608 22.1969 20.1293 22.9654 21.0783 22.9654C22.0272 22.9654 22.7957 22.1969 22.7957 21.248C22.7957 20.299 22.0272 19.5305 21.0783 19.5305ZM17.8608 21.248C17.8608 19.4706 19.3009 18.0305 21.0783 18.0305C22.8556 18.0305 24.2957 19.4706 24.2957 21.248C24.2957 23.0253 22.8556 24.4654 21.0783 24.4654C19.3009 24.4654 17.8608 23.0253 17.8608 21.248Z" fill="#717784"/>
</svg>
