<svg width="60" height="18" viewBox="0 0 60 18" fill="none" xmlns="http://www.w3.org/2000/svg">
<rect width="60" height="18" rx="4" fill="#E0E4EA"/>
<path d="M7.05682 13V4.27273H10.0057C10.6903 4.27273 11.25 4.39631 11.6847 4.64347C12.1222 4.88778 12.446 5.21875 12.6562 5.63636C12.8665 6.05398 12.9716 6.51989 12.9716 7.03409C12.9716 7.5483 12.8665 8.01562 12.6562 8.43608C12.4489 8.85653 12.1278 9.19176 11.6932 9.44176C11.2585 9.68892 10.7017 9.8125 10.0227 9.8125H7.90909V8.875H9.98864C10.4574 8.875 10.8338 8.79403 11.1179 8.6321C11.402 8.47017 11.608 8.25142 11.7358 7.97585C11.8665 7.69744 11.9318 7.38352 11.9318 7.03409C11.9318 6.68466 11.8665 6.37216 11.7358 6.09659C11.608 5.82102 11.4006 5.60511 11.1136 5.44886C10.8267 5.28977 10.446 5.21023 9.97159 5.21023H8.11364V13H7.05682ZM17.0116 13.1364C16.381 13.1364 15.8369 12.9972 15.3795 12.7188C14.925 12.4375 14.5741 12.0455 14.327 11.5426C14.0827 11.0369 13.9605 10.4489 13.9605 9.77841C13.9605 9.10795 14.0827 8.51705 14.327 8.00568C14.5741 7.49148 14.9179 7.09091 15.3582 6.80398C15.8014 6.5142 16.3185 6.36932 16.9094 6.36932C17.2503 6.36932 17.5869 6.42614 17.9193 6.53977C18.2517 6.65341 18.5543 6.83807 18.827 7.09375C19.0997 7.34659 19.317 7.68182 19.479 8.09943C19.6409 8.51705 19.7219 9.03125 19.7219 9.64205V10.0682H14.6764V9.19886H18.6991C18.6991 8.82955 18.6253 8.5 18.4776 8.21023C18.3327 7.92045 18.1253 7.69176 17.8554 7.52415C17.5884 7.35653 17.273 7.27273 16.9094 7.27273C16.5088 7.27273 16.1622 7.37216 15.8696 7.57102C15.5798 7.76705 15.3568 8.02273 15.2006 8.33807C15.0443 8.65341 14.9662 8.99148 14.9662 9.35227V9.93182C14.9662 10.4261 15.0514 10.8452 15.2219 11.1889C15.3952 11.5298 15.6352 11.7898 15.942 11.9688C16.2489 12.1449 16.6054 12.233 17.0116 12.233C17.2759 12.233 17.5145 12.196 17.7276 12.1222C17.9435 12.0455 18.1295 11.9318 18.2858 11.7812C18.442 11.6278 18.5628 11.4375 18.648 11.2102L19.6196 11.483C19.5173 11.8125 19.3455 12.1023 19.104 12.3523C18.8625 12.5994 18.5642 12.7926 18.2091 12.9318C17.854 13.0682 17.4548 13.1364 17.0116 13.1364ZM21.0517 13V6.45455H22.0233V7.44318H22.0915C22.2108 7.11932 22.4267 6.85653 22.7392 6.65483C23.0517 6.45312 23.404 6.35227 23.796 6.35227C23.8699 6.35227 23.9622 6.35369 24.073 6.35653C24.1838 6.35937 24.2676 6.36364 24.3244 6.36932V7.39205C24.2903 7.38352 24.2122 7.37074 24.0901 7.35369C23.9707 7.33381 23.8443 7.32386 23.7108 7.32386C23.3926 7.32386 23.1085 7.39062 22.8585 7.52415C22.6114 7.65483 22.4153 7.83665 22.2705 8.0696C22.1284 8.29972 22.0574 8.5625 22.0574 8.85795V13H21.0517ZM29.9529 7.92045L29.0495 8.17614C28.9927 8.02557 28.9089 7.87926 28.7981 7.73722C28.6901 7.59233 28.5424 7.47301 28.3549 7.37926C28.1674 7.28551 27.9273 7.23864 27.6347 7.23864C27.2342 7.23864 26.9004 7.33097 26.6333 7.51562C26.3691 7.69744 26.237 7.92898 26.237 8.21023C26.237 8.46023 26.3279 8.65767 26.5097 8.80256C26.6915 8.94744 26.9756 9.06818 27.362 9.16477L28.3336 9.40341C28.9188 9.54545 29.3549 9.76278 29.6418 10.0554C29.9288 10.3452 30.0722 10.7187 30.0722 11.1761C30.0722 11.5511 29.9643 11.8864 29.7484 12.1818C29.5353 12.4773 29.237 12.7102 28.8535 12.8807C28.47 13.0511 28.0239 13.1364 27.5154 13.1364C26.8478 13.1364 26.2952 12.9915 25.8577 12.7017C25.4202 12.4119 25.1433 11.9886 25.0268 11.4318L25.9813 11.1932C26.0722 11.5455 26.2441 11.8097 26.4969 11.9858C26.7526 12.1619 27.0864 12.25 27.4984 12.25C27.9671 12.25 28.3393 12.1506 28.6148 11.9517C28.8933 11.75 29.0325 11.5085 29.0325 11.2273C29.0325 11 28.9529 10.8097 28.7938 10.6562C28.6347 10.5 28.3904 10.3835 28.0609 10.3068L26.97 10.0511C26.3705 9.90909 25.9302 9.68892 25.6489 9.39062C25.3705 9.08949 25.2313 8.71307 25.2313 8.26136C25.2313 7.89205 25.335 7.56534 25.5424 7.28125C25.7526 6.99716 26.0381 6.77415 26.3989 6.61222C26.7626 6.45028 27.1745 6.36932 27.6347 6.36932C28.2825 6.36932 28.791 6.51136 29.1603 6.79545C29.5325 7.07955 29.7967 7.45455 29.9529 7.92045ZM34.0452 13.1364C33.4543 13.1364 32.9358 12.9957 32.4898 12.7145C32.0466 12.4332 31.7 12.0398 31.45 11.5341C31.2028 11.0284 31.0793 10.4375 31.0793 9.76136C31.0793 9.07955 31.2028 8.48437 31.45 7.97585C31.7 7.46733 32.0466 7.07244 32.4898 6.79119C32.9358 6.50994 33.4543 6.36932 34.0452 6.36932C34.6361 6.36932 35.1531 6.50994 35.5963 6.79119C36.0423 7.07244 36.3889 7.46733 36.6361 7.97585C36.8861 8.48437 37.0111 9.07955 37.0111 9.76136C37.0111 10.4375 36.8861 11.0284 36.6361 11.5341C36.3889 12.0398 36.0423 12.4332 35.5963 12.7145C35.1531 12.9957 34.6361 13.1364 34.0452 13.1364ZM34.0452 12.233C34.494 12.233 34.8634 12.1179 35.1531 11.8878C35.4429 11.6577 35.6574 11.3551 35.7966 10.9801C35.9358 10.6051 36.0054 10.1989 36.0054 9.76136C36.0054 9.32386 35.9358 8.91619 35.7966 8.53835C35.6574 8.16051 35.4429 7.85511 35.1531 7.62216C34.8634 7.3892 34.494 7.27273 34.0452 7.27273C33.5963 7.27273 33.227 7.3892 32.9372 7.62216C32.6474 7.85511 32.433 8.16051 32.2938 8.53835C32.1545 8.91619 32.0849 9.32386 32.0849 9.76136C32.0849 10.1989 32.1545 10.6051 32.2938 10.9801C32.433 11.3551 32.6474 11.6577 32.9372 11.8878C33.227 12.1179 33.5963 12.233 34.0452 12.233ZM39.3519 9.0625V13H38.3462V6.45455H39.3178V7.47727H39.4031C39.5565 7.14489 39.7894 6.87784 40.1019 6.67614C40.4144 6.47159 40.8178 6.36932 41.3121 6.36932C41.7553 6.36932 42.1431 6.46023 42.4755 6.64205C42.8079 6.82102 43.0664 7.09375 43.2511 7.46023C43.4357 7.82386 43.5281 8.28409 43.5281 8.84091V13H42.5224V8.90909C42.5224 8.39489 42.3888 7.99432 42.1218 7.70739C41.8548 7.41761 41.4883 7.27273 41.0224 7.27273C40.7013 7.27273 40.4144 7.34233 40.1616 7.48153C39.9116 7.62074 39.7141 7.82386 39.5692 8.09091C39.4244 8.35795 39.3519 8.68182 39.3519 9.0625ZM47.0919 13.1534C46.6771 13.1534 46.3007 13.0753 45.9626 12.919C45.6246 12.7599 45.3561 12.5312 45.1572 12.233C44.9584 11.9318 44.8589 11.5682 44.8589 11.142C44.8589 10.767 44.9328 10.4631 45.0805 10.2301C45.2283 9.99432 45.4257 9.80966 45.6729 9.67614C45.92 9.54261 46.1928 9.44318 46.4911 9.37784C46.7922 9.30966 47.0947 9.25568 47.3987 9.21591C47.7964 9.16477 48.1189 9.12642 48.3661 9.10085C48.6161 9.07244 48.7979 9.02557 48.9115 8.96023C49.028 8.89489 49.0862 8.78125 49.0862 8.61932V8.58523C49.0862 8.16477 48.9712 7.83807 48.7411 7.60511C48.5138 7.37216 48.1686 7.25568 47.7055 7.25568C47.2254 7.25568 46.849 7.3608 46.5763 7.57102C46.3036 7.78125 46.1118 8.00568 46.001 8.24432L45.0464 7.90341C45.2169 7.50568 45.4442 7.19602 45.7283 6.97443C46.0152 6.75 46.3277 6.59375 46.6658 6.50568C47.0067 6.41477 47.3419 6.36932 47.6714 6.36932C47.8817 6.36932 48.1232 6.39489 48.3959 6.44602C48.6714 6.49432 48.9371 6.59517 49.1928 6.74858C49.4513 6.90199 49.6658 7.13352 49.8362 7.44318C50.0067 7.75284 50.0919 8.16761 50.0919 8.6875V13H49.0862V12.1136H49.0351C48.9669 12.2557 48.8533 12.4077 48.6942 12.5696C48.5351 12.7315 48.3234 12.8693 48.0592 12.983C47.795 13.0966 47.4726 13.1534 47.0919 13.1534ZM47.2453 12.25C47.643 12.25 47.9783 12.1719 48.251 12.0156C48.5266 11.8594 48.7339 11.6577 48.8732 11.4105C49.0152 11.1634 49.0862 10.9034 49.0862 10.6307V9.71023C49.0436 9.76136 48.9499 9.80824 48.805 9.85085C48.6629 9.89062 48.4982 9.92614 48.3107 9.95739C48.126 9.9858 47.9456 10.0114 47.7695 10.0341C47.5962 10.054 47.4555 10.071 47.3476 10.0852C47.0862 10.1193 46.8419 10.1747 46.6146 10.2514C46.3902 10.3253 46.2084 10.4375 46.0692 10.5881C45.9328 10.7358 45.8646 10.9375 45.8646 11.1932C45.8646 11.5426 45.9939 11.8068 46.2524 11.9858C46.5138 12.1619 46.8447 12.25 47.2453 12.25ZM52.7332 4.27273V13H51.7275V4.27273H52.7332Z" fill="#0E121B"/>
</svg>
