<svg width="46" height="10" viewBox="0 0 46 10" fill="none" xmlns="http://www.w3.org/2000/svg">
<path d="M0.0568182 9V0.272727H3.00568C3.69034 0.272727 4.25 0.396307 4.68466 0.643466C5.12216 0.887784 5.44602 1.21875 5.65625 1.63636C5.86648 2.05398 5.97159 2.51989 5.97159 3.03409C5.97159 3.5483 5.86648 4.01562 5.65625 4.43608C5.44886 4.85653 5.12784 5.19176 4.69318 5.44176C4.25852 5.68892 3.7017 5.8125 3.02273 5.8125H0.909091V4.875H2.98864C3.45739 4.875 3.83381 4.79403 4.1179 4.6321C4.40199 4.47017 4.60795 4.25142 4.7358 3.97585C4.86648 3.69744 4.93182 3.38352 4.93182 3.03409C4.93182 2.68466 4.86648 2.37216 4.7358 2.09659C4.60795 1.82102 4.40057 1.60511 4.11364 1.44886C3.8267 1.28977 3.44602 1.21023 2.97159 1.21023H1.11364V9H0.0568182ZM10.0116 9.13636C9.38097 9.13636 8.83693 8.99716 8.37955 8.71875C7.925 8.4375 7.57415 8.04545 7.32699 7.54261C7.08267 7.03693 6.96051 6.44886 6.96051 5.77841C6.96051 5.10795 7.08267 4.51705 7.32699 4.00568C7.57415 3.49148 7.9179 3.09091 8.35824 2.80398C8.80142 2.5142 9.31847 2.36932 9.90938 2.36932C10.2503 2.36932 10.5869 2.42614 10.9193 2.53977C11.2517 2.65341 11.5543 2.83807 11.827 3.09375C12.0997 3.34659 12.317 3.68182 12.479 4.09943C12.6409 4.51705 12.7219 5.03125 12.7219 5.64205V6.06818H7.67642V5.19886H11.6991C11.6991 4.82955 11.6253 4.5 11.4776 4.21023C11.3327 3.92045 11.1253 3.69176 10.8554 3.52415C10.5884 3.35653 10.273 3.27273 9.90938 3.27273C9.50881 3.27273 9.16222 3.37216 8.8696 3.57102C8.57983 3.76705 8.35682 4.02273 8.20057 4.33807C8.04432 4.65341 7.96619 4.99148 7.96619 5.35227V5.93182C7.96619 6.42614 8.05142 6.84517 8.22188 7.18892C8.39517 7.52983 8.63523 7.78977 8.94205 7.96875C9.24886 8.14489 9.6054 8.23295 10.0116 8.23295C10.2759 8.23295 10.5145 8.19602 10.7276 8.12216C10.9435 8.04545 11.1295 7.93182 11.2858 7.78125C11.442 7.62784 11.5628 7.4375 11.648 7.21023L12.6196 7.48295C12.5173 7.8125 12.3455 8.10227 12.104 8.35227C11.8625 8.59943 11.5642 8.79261 11.2091 8.93182C10.854 9.06818 10.4548 9.13636 10.0116 9.13636ZM14.0517 9V2.45455H15.0233V3.44318H15.0915C15.2108 3.11932 15.4267 2.85653 15.7392 2.65483C16.0517 2.45312 16.404 2.35227 16.796 2.35227C16.8699 2.35227 16.9622 2.35369 17.073 2.35653C17.1838 2.35937 17.2676 2.36364 17.3244 2.36932V3.39205C17.2903 3.38352 17.2122 3.37074 17.0901 3.35369C16.9707 3.33381 16.8443 3.32386 16.7108 3.32386C16.3926 3.32386 16.1085 3.39062 15.8585 3.52415C15.6114 3.65483 15.4153 3.83665 15.2705 4.0696C15.1284 4.29972 15.0574 4.5625 15.0574 4.85795V9H14.0517ZM22.9529 3.92045L22.0495 4.17614C21.9927 4.02557 21.9089 3.87926 21.7981 3.73722C21.6901 3.59233 21.5424 3.47301 21.3549 3.37926C21.1674 3.28551 20.9273 3.23864 20.6347 3.23864C20.2342 3.23864 19.9004 3.33097 19.6333 3.51562C19.3691 3.69744 19.237 3.92898 19.237 4.21023C19.237 4.46023 19.3279 4.65767 19.5097 4.80256C19.6915 4.94744 19.9756 5.06818 20.362 5.16477L21.3336 5.40341C21.9188 5.54545 22.3549 5.76278 22.6418 6.0554C22.9288 6.34517 23.0722 6.71875 23.0722 7.17614C23.0722 7.55114 22.9643 7.88636 22.7484 8.18182C22.5353 8.47727 22.237 8.71023 21.8535 8.88068C21.47 9.05114 21.0239 9.13636 20.5154 9.13636C19.8478 9.13636 19.2952 8.99148 18.8577 8.7017C18.4202 8.41193 18.1433 7.98864 18.0268 7.43182L18.9813 7.19318C19.0722 7.54545 19.2441 7.80966 19.4969 7.9858C19.7526 8.16193 20.0864 8.25 20.4984 8.25C20.9671 8.25 21.3393 8.15057 21.6148 7.9517C21.8933 7.75 22.0325 7.50852 22.0325 7.22727C22.0325 7 21.9529 6.80966 21.7938 6.65625C21.6347 6.5 21.3904 6.38352 21.0609 6.30682L19.97 6.05114C19.3705 5.90909 18.9302 5.68892 18.6489 5.39062C18.3705 5.08949 18.2313 4.71307 18.2313 4.26136C18.2313 3.89205 18.335 3.56534 18.5424 3.28125C18.7526 2.99716 19.0381 2.77415 19.3989 2.61222C19.7626 2.45028 20.1745 2.36932 20.6347 2.36932C21.2825 2.36932 21.791 2.51136 22.1603 2.79545C22.5325 3.07955 22.7967 3.45455 22.9529 3.92045ZM27.0452 9.13636C26.4543 9.13636 25.9358 8.99574 25.4898 8.71449C25.0466 8.43324 24.7 8.03977 24.45 7.53409C24.2028 7.02841 24.0793 6.4375 24.0793 5.76136C24.0793 5.07955 24.2028 4.48437 24.45 3.97585C24.7 3.46733 25.0466 3.07244 25.4898 2.79119C25.9358 2.50994 26.4543 2.36932 27.0452 2.36932C27.6361 2.36932 28.1531 2.50994 28.5963 2.79119C29.0423 3.07244 29.3889 3.46733 29.6361 3.97585C29.8861 4.48437 30.0111 5.07955 30.0111 5.76136C30.0111 6.4375 29.8861 7.02841 29.6361 7.53409C29.3889 8.03977 29.0423 8.43324 28.5963 8.71449C28.1531 8.99574 27.6361 9.13636 27.0452 9.13636ZM27.0452 8.23295C27.494 8.23295 27.8634 8.1179 28.1531 7.88778C28.4429 7.65767 28.6574 7.35511 28.7966 6.98011C28.9358 6.60511 29.0054 6.19886 29.0054 5.76136C29.0054 5.32386 28.9358 4.91619 28.7966 4.53835C28.6574 4.16051 28.4429 3.85511 28.1531 3.62216C27.8634 3.3892 27.494 3.27273 27.0452 3.27273C26.5963 3.27273 26.227 3.3892 25.9372 3.62216C25.6474 3.85511 25.433 4.16051 25.2938 4.53835C25.1545 4.91619 25.0849 5.32386 25.0849 5.76136C25.0849 6.19886 25.1545 6.60511 25.2938 6.98011C25.433 7.35511 25.6474 7.65767 25.9372 7.88778C26.227 8.1179 26.5963 8.23295 27.0452 8.23295ZM32.3519 5.0625V9H31.3462V2.45455H32.3178V3.47727H32.4031C32.5565 3.14489 32.7894 2.87784 33.1019 2.67614C33.4144 2.47159 33.8178 2.36932 34.3121 2.36932C34.7553 2.36932 35.1431 2.46023 35.4755 2.64205C35.8079 2.82102 36.0664 3.09375 36.2511 3.46023C36.4357 3.82386 36.5281 4.28409 36.5281 4.84091V9H35.5224V4.90909C35.5224 4.39489 35.3888 3.99432 35.1218 3.70739C34.8548 3.41761 34.4883 3.27273 34.0224 3.27273C33.7013 3.27273 33.4144 3.34233 33.1616 3.48153C32.9116 3.62074 32.7141 3.82386 32.5692 4.09091C32.4244 4.35795 32.3519 4.68182 32.3519 5.0625ZM40.0919 9.15341C39.6771 9.15341 39.3007 9.07528 38.9626 8.91903C38.6246 8.75994 38.3561 8.53125 38.1572 8.23295C37.9584 7.93182 37.8589 7.56818 37.8589 7.14205C37.8589 6.76705 37.9328 6.46307 38.0805 6.23011C38.2283 5.99432 38.4257 5.80966 38.6729 5.67614C38.92 5.54261 39.1928 5.44318 39.4911 5.37784C39.7922 5.30966 40.0947 5.25568 40.3987 5.21591C40.7964 5.16477 41.1189 5.12642 41.3661 5.10085C41.6161 5.07244 41.7979 5.02557 41.9115 4.96023C42.028 4.89489 42.0862 4.78125 42.0862 4.61932V4.58523C42.0862 4.16477 41.9712 3.83807 41.7411 3.60511C41.5138 3.37216 41.1686 3.25568 40.7055 3.25568C40.2254 3.25568 39.849 3.3608 39.5763 3.57102C39.3036 3.78125 39.1118 4.00568 39.001 4.24432L38.0464 3.90341C38.2169 3.50568 38.4442 3.19602 38.7283 2.97443C39.0152 2.75 39.3277 2.59375 39.6658 2.50568C40.0067 2.41477 40.3419 2.36932 40.6714 2.36932C40.8817 2.36932 41.1232 2.39489 41.3959 2.44602C41.6714 2.49432 41.9371 2.59517 42.1928 2.74858C42.4513 2.90199 42.6658 3.13352 42.8362 3.44318C43.0067 3.75284 43.0919 4.16761 43.0919 4.6875V9H42.0862V8.11364H42.0351C41.9669 8.25568 41.8533 8.40767 41.6942 8.5696C41.5351 8.73153 41.3234 8.86932 41.0592 8.98295C40.795 9.09659 40.4726 9.15341 40.0919 9.15341ZM40.2453 8.25C40.643 8.25 40.9783 8.17188 41.251 8.01562C41.5266 7.85938 41.7339 7.65767 41.8732 7.41051C42.0152 7.16335 42.0862 6.90341 42.0862 6.63068V5.71023C42.0436 5.76136 41.9499 5.80824 41.805 5.85085C41.6629 5.89062 41.4982 5.92614 41.3107 5.95739C41.126 5.9858 40.9456 6.01136 40.7695 6.03409C40.5962 6.05398 40.4555 6.07102 40.3476 6.08523C40.0862 6.11932 39.8419 6.17472 39.6146 6.25142C39.3902 6.32528 39.2084 6.4375 39.0692 6.58807C38.9328 6.7358 38.8646 6.9375 38.8646 7.19318C38.8646 7.54261 38.9939 7.80682 39.2524 7.9858C39.5138 8.16193 39.8447 8.25 40.2453 8.25ZM45.7332 0.272727V9H44.7275V0.272727H45.7332Z" fill="#0E121B"/>
</svg>
