<svg width="540" height="60" viewBox="0 0 540 60" fill="none" xmlns="http://www.w3.org/2000/svg">
<path fill-rule="evenodd" clip-rule="evenodd" d="M2.01055 8.9783C2.01249 8.03712 2.72405 7.19324 3.64772 7.03432C3.83712 7.00124 6.05872 7.00578 6.97787 7.00643C7.88727 7.00708 8.6624 7.33399 9.30454 7.97485C10.668 9.3357 12.0301 10.6979 13.3903 12.0613C14.1953 12.8676 14.2063 14.1052 13.4046 14.9141C12.2481 16.0816 11.0857 17.2433 9.9188 18.3999C9.1106 19.2009 7.873 19.1905 7.06607 18.3856C5.69029 17.0137 4.31452 15.6418 2.94459 14.2641C2.41465 13.7309 2.10201 13.0868 2.0326 12.3337C1.97681 11.7318 2.00925 9.49397 2.01055 8.9783Z" stroke="#2B303B" stroke-width="1.2" stroke-linecap="round" stroke-linejoin="round"/>
<path fill-rule="evenodd" clip-rule="evenodd" d="M6.60475 10.5429C6.60215 11.1228 6.11761 11.5995 5.53189 11.5982C4.95006 11.5969 4.46552 11.1117 4.46877 10.5338C4.47266 9.93057 4.95006 9.46031 5.55719 9.4629C6.13318 9.46485 6.60734 9.95327 6.60475 10.5429Z" stroke="#2B303B" stroke-width="1.2" stroke-linecap="round" stroke-linejoin="round"/>
<path d="M24.1 18V17.412H24.422C24.6273 17.412 24.814 17.3933 24.982 17.356C25.1593 17.3093 25.2993 17.2207 25.402 17.09C25.514 16.95 25.57 16.7447 25.57 16.474V8.704H24.226C23.9553 8.704 23.7407 8.76 23.582 8.872C23.4233 8.97467 23.3067 9.11467 23.232 9.292C23.1573 9.46 23.106 9.64667 23.078 9.852L23.008 10.454H22.28L22.35 8.004H30.232L30.302 10.454H29.574L29.504 9.852C29.4853 9.64667 29.434 9.46 29.35 9.292C29.2753 9.11467 29.1587 8.97467 29 8.872C28.8413 8.76 28.622 8.704 28.342 8.704H26.984V16.404C26.984 16.6933 27.0353 16.9127 27.138 17.062C27.2407 17.202 27.3807 17.2953 27.558 17.342C27.7353 17.3887 27.9267 17.412 28.132 17.412H28.454V18H24.1ZM32.8321 18.14C32.4214 18.14 32.0481 18.0607 31.7121 17.902C31.3854 17.734 31.1288 17.4867 30.9421 17.16C30.7554 16.824 30.6621 16.404 30.6621 15.9C30.6621 15.1533 30.9234 14.6027 31.4461 14.248C31.9781 13.8933 32.7808 13.6973 33.8541 13.66L35.0161 13.618V12.778C35.0161 12.442 34.9881 12.148 34.9321 11.896C34.8761 11.6347 34.7548 11.4293 34.5681 11.28C34.3814 11.1307 34.0968 11.056 33.7141 11.056C33.3594 11.056 33.0888 11.1213 32.9021 11.252C32.7154 11.3827 32.5894 11.5647 32.5241 11.798C32.4681 12.022 32.4401 12.2833 32.4401 12.582C32.0481 12.582 31.7494 12.5167 31.5441 12.386C31.3481 12.246 31.2501 12.0173 31.2501 11.7C31.2501 11.3733 31.3621 11.112 31.5861 10.916C31.8194 10.72 32.1274 10.58 32.5101 10.496C32.8928 10.4027 33.3128 10.356 33.7701 10.356C34.6288 10.356 35.2681 10.538 35.6881 10.902C36.1174 11.266 36.3321 11.8913 36.3321 12.778V16.404C36.3321 16.6653 36.3601 16.8707 36.4161 17.02C36.4721 17.16 36.5654 17.2627 36.6961 17.328C36.8268 17.384 36.9948 17.412 37.2001 17.412H37.2421V18H35.3521L35.1281 16.796H35.0161C34.8201 17.0573 34.6288 17.2907 34.4421 17.496C34.2554 17.692 34.0361 17.8507 33.7841 17.972C33.5414 18.084 33.2241 18.14 32.8321 18.14ZM33.1541 17.272C33.5368 17.272 33.8634 17.1927 34.1341 17.034C34.4141 16.8753 34.6288 16.6513 34.7781 16.362C34.9368 16.0633 35.0161 15.718 35.0161 15.326V14.192L34.1201 14.234C33.5881 14.2527 33.1681 14.332 32.8601 14.472C32.5614 14.612 32.3468 14.808 32.2161 15.06C32.0854 15.3027 32.0201 15.606 32.0201 15.97C32.0201 16.2593 32.0621 16.502 32.1461 16.698C32.2301 16.8847 32.3561 17.0293 32.5241 17.132C32.6921 17.2253 32.9021 17.272 33.1541 17.272ZM40.8848 21.36C39.9141 21.36 39.1861 21.178 38.7008 20.814C38.2154 20.4593 37.9728 19.96 37.9728 19.316C37.9728 18.952 38.0521 18.644 38.2108 18.392C38.3788 18.1493 38.5934 17.958 38.8548 17.818C39.1254 17.678 39.4148 17.58 39.7228 17.524C39.5361 17.44 39.3588 17.3047 39.1908 17.118C39.0321 16.922 38.9528 16.6747 38.9528 16.376C38.9528 16.096 39.0228 15.8533 39.1628 15.648C39.3121 15.4427 39.5454 15.2467 39.8628 15.06C39.4614 14.892 39.1488 14.6167 38.9248 14.234C38.7101 13.842 38.6028 13.4127 38.6028 12.946C38.6028 12.1433 38.8221 11.5133 39.2608 11.056C39.6994 10.5893 40.3574 10.356 41.2348 10.356C41.5708 10.356 41.8881 10.4027 42.1868 10.496C42.4854 10.5893 42.7001 10.6967 42.8308 10.818C42.9241 10.7153 43.0361 10.608 43.1668 10.496C43.2974 10.3747 43.4468 10.272 43.6148 10.188C43.7921 10.104 43.9834 10.062 44.1888 10.062C44.4688 10.062 44.6741 10.1367 44.8048 10.286C44.9448 10.426 45.0148 10.594 45.0148 10.79C45.0148 10.986 44.9541 11.1587 44.8328 11.308C44.7208 11.448 44.5341 11.518 44.2728 11.518C44.2728 11.4153 44.2401 11.3127 44.1748 11.21C44.1188 11.098 43.9974 11.042 43.8108 11.042C43.6894 11.042 43.5821 11.056 43.4888 11.084C43.3954 11.112 43.3021 11.154 43.2088 11.21C43.3674 11.406 43.4981 11.6393 43.6008 11.91C43.7034 12.1713 43.7548 12.5027 43.7548 12.904C43.7548 13.5947 43.5448 14.1687 43.1248 14.626C42.7141 15.0833 42.0841 15.312 41.2348 15.312C41.1228 15.312 40.9921 15.3073 40.8428 15.298C40.7028 15.2793 40.5861 15.2607 40.4928 15.242C40.3154 15.3353 40.1614 15.452 40.0308 15.592C39.9001 15.732 39.8348 15.9093 39.8348 16.124C39.8348 16.292 39.8861 16.4227 39.9888 16.516C40.1008 16.6093 40.3388 16.656 40.7028 16.656H42.2848C42.8448 16.656 43.2928 16.7493 43.6288 16.936C43.9648 17.1133 44.2074 17.3607 44.3568 17.678C44.5154 17.986 44.5948 18.3407 44.5948 18.742C44.5948 19.5447 44.2914 20.1793 43.6848 20.646C43.0874 21.122 42.1541 21.36 40.8848 21.36ZM40.9128 20.674C41.5848 20.674 42.1028 20.5993 42.4668 20.45C42.8308 20.31 43.0828 20.1093 43.2228 19.848C43.3721 19.596 43.4468 19.3067 43.4468 18.98C43.4468 18.5507 43.3254 18.2613 43.0828 18.112C42.8401 17.972 42.4854 17.902 42.0188 17.902H40.6468C40.3854 17.902 40.1381 17.9347 39.9048 18C39.6714 18.0747 39.4801 18.2053 39.3308 18.392C39.1814 18.5787 39.1068 18.8587 39.1068 19.232C39.1068 19.5027 39.1581 19.7453 39.2608 19.96C39.3634 20.184 39.5454 20.3567 39.8068 20.478C40.0681 20.6087 40.4368 20.674 40.9128 20.674ZM41.1928 14.64C41.5008 14.64 41.7434 14.5793 41.9208 14.458C42.1074 14.3367 42.2381 14.1453 42.3128 13.884C42.3968 13.6227 42.4388 13.2913 42.4388 12.89C42.4388 12.47 42.3968 12.1247 42.3128 11.854C42.2288 11.574 42.0934 11.3687 41.9068 11.238C41.7294 11.1073 41.4868 11.042 41.1788 11.042C40.8801 11.042 40.6374 11.112 40.4508 11.252C40.2641 11.3827 40.1288 11.588 40.0448 11.868C39.9608 12.1387 39.9188 12.484 39.9188 12.904C39.9188 13.296 39.9608 13.6227 40.0448 13.884C40.1381 14.136 40.2781 14.3273 40.4648 14.458C40.6514 14.5793 40.8941 14.64 41.1928 14.64ZM47.924 18.14C47.4573 18.14 47.0513 18.084 46.706 17.972C46.3607 17.86 46.09 17.6967 45.894 17.482C45.7073 17.258 45.614 16.9827 45.614 16.656C45.614 16.404 45.6653 16.208 45.768 16.068C45.8707 15.928 45.9873 15.83 46.118 15.774C46.258 15.718 46.384 15.69 46.496 15.69C46.496 16.0167 46.5427 16.3153 46.636 16.586C46.7293 16.8567 46.888 17.0713 47.112 17.23C47.336 17.3887 47.6347 17.468 48.008 17.468C48.5027 17.468 48.8807 17.3513 49.142 17.118C49.4127 16.8753 49.548 16.5673 49.548 16.194C49.548 15.9607 49.4967 15.7693 49.394 15.62C49.3007 15.4707 49.128 15.326 48.876 15.186C48.6333 15.0367 48.2833 14.864 47.826 14.668C47.35 14.4533 46.9533 14.248 46.636 14.052C46.328 13.8467 46.0947 13.6133 45.936 13.352C45.7867 13.0813 45.712 12.7453 45.712 12.344C45.712 11.7093 45.95 11.224 46.426 10.888C46.9113 10.5427 47.5507 10.37 48.344 10.37C48.792 10.37 49.1653 10.4307 49.464 10.552C49.772 10.664 50.0007 10.818 50.15 11.014C50.3087 11.21 50.388 11.4247 50.388 11.658C50.388 11.91 50.2993 12.1153 50.122 12.274C49.954 12.4233 49.7067 12.498 49.38 12.498C49.38 12.0313 49.282 11.6673 49.086 11.406C48.89 11.1447 48.5867 11.014 48.176 11.014C47.8587 11.014 47.602 11.0607 47.406 11.154C47.21 11.2473 47.0653 11.378 46.972 11.546C46.888 11.714 46.846 11.91 46.846 12.134C46.846 12.3673 46.902 12.5633 47.014 12.722C47.1353 12.8807 47.322 13.03 47.574 13.17C47.8353 13.3007 48.1713 13.45 48.582 13.618C49.0767 13.8233 49.478 14.0287 49.786 14.234C50.094 14.4393 50.318 14.6773 50.458 14.948C50.6073 15.2187 50.682 15.55 50.682 15.942C50.682 16.67 50.43 17.2207 49.926 17.594C49.422 17.958 48.7547 18.14 47.924 18.14Z" fill="#2B303B"/>
<g clip-path="url(#clip0_3515_7459)">
<path d="M123.532 18V17.412H123.714C123.929 17.412 124.12 17.3887 124.288 17.342C124.465 17.2953 124.605 17.202 124.708 17.062C124.811 16.9127 124.862 16.6933 124.862 16.404V9.544C124.862 9.264 124.806 9.05867 124.694 8.928C124.591 8.788 124.451 8.69933 124.274 8.662C124.106 8.61533 123.919 8.592 123.714 8.592H123.532V8.004H127.816C128.777 8.004 129.599 8.2 130.28 8.592C130.961 8.97467 131.479 9.53933 131.834 10.286C132.198 11.0233 132.38 11.924 132.38 12.988C132.38 14.0053 132.207 14.892 131.862 15.648C131.526 16.3947 131.022 16.9733 130.35 17.384C129.678 17.7947 128.833 18 127.816 18H123.532ZM127.494 17.286C128.241 17.286 128.857 17.1227 129.342 16.796C129.837 16.46 130.205 15.9747 130.448 15.34C130.7 14.696 130.826 13.912 130.826 12.988C130.826 12.064 130.7 11.2847 130.448 10.65C130.205 10.0153 129.837 9.53467 129.342 9.208C128.857 8.872 128.245 8.704 127.508 8.704H126.276V17.286H127.494ZM136.99 18.14C135.973 18.14 135.175 17.804 134.596 17.132C134.027 16.46 133.742 15.5173 133.742 14.304C133.742 12.9973 134.013 12.0127 134.554 11.35C135.095 10.6873 135.861 10.356 136.85 10.356C137.755 10.356 138.465 10.636 138.978 11.196C139.501 11.756 139.762 12.5913 139.762 13.702V14.346H135.1C135.119 15.0273 135.207 15.5827 135.366 16.012C135.525 16.4413 135.753 16.7587 136.052 16.964C136.36 17.16 136.738 17.258 137.186 17.258C137.513 17.258 137.802 17.2113 138.054 17.118C138.315 17.0247 138.539 16.9033 138.726 16.754C138.922 16.6047 139.076 16.446 139.188 16.278C139.253 16.306 139.314 16.362 139.37 16.446C139.426 16.53 139.454 16.6327 139.454 16.754C139.454 16.9407 139.365 17.1413 139.188 17.356C139.011 17.5707 138.74 17.7573 138.376 17.916C138.012 18.0653 137.55 18.14 136.99 18.14ZM138.348 13.59C138.348 13.0953 138.297 12.6613 138.194 12.288C138.101 11.9147 137.942 11.6253 137.718 11.42C137.494 11.2147 137.195 11.112 136.822 11.112C136.477 11.112 136.183 11.21 135.94 11.406C135.707 11.5927 135.52 11.868 135.38 12.232C135.249 12.596 135.165 13.0487 135.128 13.59H138.348ZM141.356 11.826C141.291 11.63 141.211 11.4807 141.118 11.378C141.034 11.266 140.927 11.1913 140.796 11.154C140.675 11.1073 140.516 11.084 140.32 11.084V10.496H143.82V11.084H143.638C143.358 11.084 143.148 11.14 143.008 11.252C142.868 11.3547 142.798 11.5227 142.798 11.756C142.798 11.8307 142.807 11.91 142.826 11.994C142.845 12.078 142.873 12.1713 142.91 12.274L143.862 14.92C143.946 15.144 144.03 15.3913 144.114 15.662C144.198 15.9233 144.273 16.1753 144.338 16.418C144.413 16.6513 144.473 16.852 144.52 17.02C144.557 16.8893 144.613 16.7167 144.688 16.502C144.763 16.2873 144.847 16.0587 144.94 15.816C145.043 15.564 145.136 15.326 145.22 15.102L146.228 12.372C146.275 12.26 146.307 12.1527 146.326 12.05C146.345 11.938 146.354 11.8447 146.354 11.77C146.354 11.5273 146.275 11.3547 146.116 11.252C145.967 11.14 145.738 11.084 145.43 11.084H145.332V10.496H148.328V11.084H148.16C147.983 11.084 147.833 11.112 147.712 11.168C147.6 11.224 147.497 11.3313 147.404 11.49C147.311 11.6487 147.208 11.8773 147.096 12.176L144.884 18H143.61L141.356 11.826ZM147.894 19.568C148.202 19.4653 148.454 19.3487 148.65 19.218C148.846 19.0967 148.991 18.9567 149.084 18.798C149.178 18.6487 149.224 18.4853 149.224 18.308C149.224 18.196 149.187 18.1027 149.112 18.028C149.047 17.9627 148.963 17.9067 148.86 17.86C148.767 17.804 148.669 17.7433 148.566 17.678C148.464 17.6127 148.375 17.5287 148.3 17.426C148.235 17.3233 148.202 17.188 148.202 17.02C148.202 16.7493 148.286 16.544 148.454 16.404C148.632 16.264 148.851 16.194 149.112 16.194C149.402 16.194 149.654 16.3013 149.868 16.516C150.083 16.7213 150.19 17.02 150.19 17.412C150.19 18.0093 150.013 18.5553 149.658 19.05C149.313 19.5447 148.725 19.9133 147.894 20.156V19.568ZM154.743 18V17.412H154.925C155.13 17.412 155.317 17.3933 155.485 17.356C155.662 17.3093 155.802 17.2207 155.905 17.09C156.017 16.95 156.073 16.7447 156.073 16.474V9.544C156.073 9.264 156.017 9.05867 155.905 8.928C155.802 8.788 155.662 8.69933 155.485 8.662C155.317 8.61533 155.13 8.592 154.925 8.592H154.743V8.004H158.509C159.321 8.004 159.993 8.10667 160.525 8.312C161.057 8.508 161.454 8.80667 161.715 9.208C161.976 9.6 162.107 10.0993 162.107 10.706C162.107 11.2007 162.004 11.6207 161.799 11.966C161.594 12.302 161.332 12.5727 161.015 12.778C160.707 12.9833 160.385 13.142 160.049 13.254L161.967 16.292C162.088 16.4787 162.205 16.642 162.317 16.782C162.429 16.922 162.541 17.0387 162.653 17.132C162.774 17.2253 162.896 17.2953 163.017 17.342C163.148 17.3887 163.288 17.412 163.437 17.412H163.479V18H163.283C162.844 18 162.48 17.986 162.191 17.958C161.911 17.9207 161.678 17.86 161.491 17.776C161.304 17.6827 161.136 17.552 160.987 17.384C160.847 17.216 160.698 17.0013 160.539 16.74L158.649 13.59H157.487V16.474C157.487 16.7447 157.538 16.95 157.641 17.09C157.753 17.2207 157.893 17.3093 158.061 17.356C158.238 17.3933 158.43 17.412 158.635 17.412H158.817V18H154.743ZM158.467 12.932C159.018 12.932 159.447 12.8527 159.755 12.694C160.063 12.526 160.282 12.2833 160.413 11.966C160.544 11.6393 160.609 11.2333 160.609 10.748C160.609 10.244 160.539 9.84267 160.399 9.544C160.259 9.236 160.03 9.01667 159.713 8.886C159.396 8.746 158.971 8.676 158.439 8.676H157.487V12.932H158.467ZM167.216 18.14C166.199 18.14 165.401 17.804 164.822 17.132C164.253 16.46 163.968 15.5173 163.968 14.304C163.968 12.9973 164.239 12.0127 164.78 11.35C165.322 10.6873 166.087 10.356 167.076 10.356C167.982 10.356 168.691 10.636 169.204 11.196C169.727 11.756 169.988 12.5913 169.988 13.702V14.346H165.326C165.345 15.0273 165.434 15.5827 165.592 16.012C165.751 16.4413 165.98 16.7587 166.278 16.964C166.586 17.16 166.964 17.258 167.412 17.258C167.739 17.258 168.028 17.2113 168.28 17.118C168.542 17.0247 168.766 16.9033 168.952 16.754C169.148 16.6047 169.302 16.446 169.414 16.278C169.48 16.306 169.54 16.362 169.596 16.446C169.652 16.53 169.68 16.6327 169.68 16.754C169.68 16.9407 169.592 17.1413 169.414 17.356C169.237 17.5707 168.966 17.7573 168.602 17.916C168.238 18.0653 167.776 18.14 167.216 18.14ZM168.574 13.59C168.574 13.0953 168.523 12.6613 168.42 12.288C168.327 11.9147 168.168 11.6253 167.944 11.42C167.72 11.2147 167.422 11.112 167.048 11.112C166.703 11.112 166.409 11.21 166.166 11.406C165.933 11.5927 165.746 11.868 165.606 12.232C165.476 12.596 165.392 13.0487 165.354 13.59H168.574ZM173.361 18.14C172.95 18.14 172.577 18.0607 172.241 17.902C171.914 17.734 171.657 17.4867 171.471 17.16C171.284 16.824 171.191 16.404 171.191 15.9C171.191 15.1533 171.452 14.6027 171.975 14.248C172.507 13.8933 173.309 13.6973 174.383 13.66L175.545 13.618V12.778C175.545 12.442 175.517 12.148 175.461 11.896C175.405 11.6347 175.283 11.4293 175.097 11.28C174.91 11.1307 174.625 11.056 174.243 11.056C173.888 11.056 173.617 11.1213 173.431 11.252C173.244 11.3827 173.118 11.5647 173.053 11.798C172.997 12.022 172.969 12.2833 172.969 12.582C172.577 12.582 172.278 12.5167 172.073 12.386C171.877 12.246 171.779 12.0173 171.779 11.7C171.779 11.3733 171.891 11.112 172.115 10.916C172.348 10.72 172.656 10.58 173.039 10.496C173.421 10.4027 173.841 10.356 174.299 10.356C175.157 10.356 175.797 10.538 176.217 10.902C176.646 11.266 176.861 11.8913 176.861 12.778V16.404C176.861 16.6653 176.889 16.8707 176.945 17.02C177.001 17.16 177.094 17.2627 177.225 17.328C177.355 17.384 177.523 17.412 177.729 17.412H177.771V18H175.881L175.657 16.796H175.545C175.349 17.0573 175.157 17.2907 174.971 17.496C174.784 17.692 174.565 17.8507 174.313 17.972C174.07 18.084 173.753 18.14 173.361 18.14ZM173.683 17.272C174.065 17.272 174.392 17.1927 174.663 17.034C174.943 16.8753 175.157 16.6513 175.307 16.362C175.465 16.0633 175.545 15.718 175.545 15.326V14.192L174.649 14.234C174.117 14.2527 173.697 14.332 173.389 14.472C173.09 14.612 172.875 14.808 172.745 15.06C172.614 15.3027 172.549 15.606 172.549 15.97C172.549 16.2593 172.591 16.502 172.675 16.698C172.759 16.8847 172.885 17.0293 173.053 17.132C173.221 17.2253 173.431 17.272 173.683 17.272ZM182.141 18.14C181.525 18.14 180.975 18.0093 180.489 17.748C180.013 17.4867 179.635 17.076 179.355 16.516C179.085 15.9467 178.949 15.2047 178.949 14.29C178.949 13.2913 179.085 12.5073 179.355 11.938C179.635 11.3593 180.009 10.9533 180.475 10.72C180.951 10.4773 181.483 10.356 182.071 10.356C182.463 10.356 182.846 10.4073 183.219 10.51C183.593 10.6127 183.901 10.7713 184.143 10.986C184.386 11.1913 184.507 11.4573 184.507 11.784C184.507 11.9987 184.461 12.1713 184.367 12.302C184.274 12.4327 184.134 12.526 183.947 12.582C183.77 12.638 183.541 12.666 183.261 12.666C183.261 12.3673 183.224 12.0967 183.149 11.854C183.084 11.6113 182.967 11.42 182.799 11.28C182.631 11.1307 182.389 11.056 182.071 11.056C181.717 11.056 181.404 11.1493 181.133 11.336C180.872 11.5227 180.667 11.8493 180.517 12.316C180.377 12.7827 180.307 13.436 180.307 14.276C180.307 14.9387 180.377 15.4893 180.517 15.928C180.667 16.3667 180.895 16.6933 181.203 16.908C181.511 17.1227 181.917 17.23 182.421 17.23C182.711 17.23 182.977 17.188 183.219 17.104C183.462 17.02 183.672 16.9033 183.849 16.754C184.036 16.6047 184.181 16.4367 184.283 16.25C184.358 16.306 184.414 16.3807 184.451 16.474C184.498 16.558 184.521 16.6653 184.521 16.796C184.521 17.0107 184.433 17.2207 184.255 17.426C184.078 17.6313 183.812 17.804 183.457 17.944C183.112 18.0747 182.673 18.14 182.141 18.14ZM188.23 18.14C187.521 18.14 187.003 17.9813 186.676 17.664C186.359 17.3373 186.2 16.7727 186.2 15.97V11.294H185.136V10.734C185.304 10.734 185.491 10.7013 185.696 10.636C185.901 10.5613 186.079 10.4447 186.228 10.286C186.387 10.118 186.517 9.91267 186.62 9.67C186.723 9.42733 186.807 9.12867 186.872 8.774H187.516V10.496H189.35V11.294H187.516V16.012C187.516 16.488 187.614 16.838 187.81 17.062C188.006 17.286 188.263 17.398 188.58 17.398C188.748 17.398 188.902 17.3887 189.042 17.37C189.182 17.3513 189.327 17.328 189.476 17.3V17.916C189.355 17.972 189.173 18.0233 188.93 18.07C188.687 18.1167 188.454 18.14 188.23 18.14Z" fill="#0E121B"/>
</g>
<path fill-rule="evenodd" clip-rule="evenodd" d="M8.16699 41.5C5.12919 41.5 2.66699 43.9622 2.66699 47C2.66699 50.0372 5.12923 52.5 8.16699 52.5C11.2048 52.5 13.667 50.0372 13.667 47C13.667 43.9622 11.2048 41.5 8.16699 41.5ZM1.66699 47C1.66699 43.4099 4.57691 40.5 8.16699 40.5C11.7571 40.5 14.667 43.4099 14.667 47C14.667 50.5894 11.7571 53.5 8.16699 53.5C4.57687 53.5 1.66699 50.5894 1.66699 47Z" fill="#2B303B"/>
<path fill-rule="evenodd" clip-rule="evenodd" d="M7.94824 44.2178C8.22438 44.2178 8.44824 44.4416 8.44824 44.7178V47.1662L10.3212 48.2855C10.5583 48.4272 10.6356 48.7342 10.494 48.9713C10.3523 49.2083 10.0453 49.2856 9.80824 49.1439L7.69171 47.8791C7.54071 47.7888 7.44824 47.6259 7.44824 47.4499V44.7178C7.44824 44.4416 7.67211 44.2178 7.94824 44.2178Z" fill="#2B303B"/>
<path d="M22.532 52V51.412H22.714C22.9287 51.412 23.12 51.3887 23.288 51.342C23.4653 51.2953 23.6053 51.202 23.708 51.062C23.8107 50.9127 23.862 50.6933 23.862 50.404V43.6C23.862 43.3013 23.8107 43.082 23.708 42.942C23.6053 42.802 23.4653 42.7087 23.288 42.662C23.12 42.6153 22.9287 42.592 22.714 42.592H22.532V42.004H26.606V42.592H26.424C26.2187 42.592 26.0273 42.6153 25.85 42.662C25.682 42.6993 25.542 42.788 25.43 42.928C25.3273 43.0587 25.276 43.264 25.276 43.544V51.3H28.034C28.314 51.3 28.538 51.2393 28.706 51.118C28.8833 50.9873 29.014 50.824 29.098 50.628C29.182 50.432 29.238 50.236 29.266 50.04L29.406 48.99H30.134L30.036 52H22.532ZM33.3927 52.14C32.982 52.14 32.6087 52.0607 32.2727 51.902C31.946 51.734 31.6893 51.4867 31.5027 51.16C31.316 50.824 31.2227 50.404 31.2227 49.9C31.2227 49.1533 31.484 48.6027 32.0067 48.248C32.5387 47.8933 33.3413 47.6973 34.4147 47.66L35.5767 47.618V46.778C35.5767 46.442 35.5487 46.148 35.4927 45.896C35.4367 45.6347 35.3153 45.4293 35.1287 45.28C34.942 45.1307 34.6573 45.056 34.2747 45.056C33.92 45.056 33.6493 45.1213 33.4627 45.252C33.276 45.3827 33.15 45.5647 33.0847 45.798C33.0287 46.022 33.0007 46.2833 33.0007 46.582C32.6087 46.582 32.31 46.5167 32.1047 46.386C31.9087 46.246 31.8107 46.0173 31.8107 45.7C31.8107 45.3733 31.9227 45.112 32.1467 44.916C32.38 44.72 32.688 44.58 33.0707 44.496C33.4533 44.4027 33.8733 44.356 34.3307 44.356C35.1893 44.356 35.8287 44.538 36.2487 44.902C36.678 45.266 36.8927 45.8913 36.8927 46.778V50.404C36.8927 50.6653 36.9207 50.8707 36.9767 51.02C37.0327 51.16 37.126 51.2627 37.2567 51.328C37.3873 51.384 37.5553 51.412 37.7607 51.412H37.8027V52H35.9127L35.6887 50.796H35.5767C35.3807 51.0573 35.1893 51.2907 35.0027 51.496C34.816 51.692 34.5967 51.8507 34.3447 51.972C34.102 52.084 33.7847 52.14 33.3927 52.14ZM33.7147 51.272C34.0973 51.272 34.424 51.1927 34.6947 51.034C34.9747 50.8753 35.1893 50.6513 35.3387 50.362C35.4973 50.0633 35.5767 49.718 35.5767 49.326V48.192L34.6807 48.234C34.1487 48.2527 33.7287 48.332 33.4207 48.472C33.122 48.612 32.9073 48.808 32.7767 49.06C32.646 49.3027 32.5807 49.606 32.5807 49.97C32.5807 50.2593 32.6227 50.502 32.7067 50.698C32.7907 50.8847 32.9167 51.0293 33.0847 51.132C33.2527 51.2253 33.4627 51.272 33.7147 51.272ZM41.1513 52.14C40.6847 52.14 40.2787 52.084 39.9333 51.972C39.588 51.86 39.3173 51.6967 39.1213 51.482C38.9347 51.258 38.8413 50.9827 38.8413 50.656C38.8413 50.404 38.8927 50.208 38.9953 50.068C39.098 49.928 39.2147 49.83 39.3453 49.774C39.4853 49.718 39.6113 49.69 39.7233 49.69C39.7233 50.0167 39.77 50.3153 39.8633 50.586C39.9567 50.8567 40.1153 51.0713 40.3393 51.23C40.5633 51.3887 40.862 51.468 41.2353 51.468C41.73 51.468 42.108 51.3513 42.3693 51.118C42.64 50.8753 42.7753 50.5673 42.7753 50.194C42.7753 49.9607 42.724 49.7693 42.6213 49.62C42.528 49.4707 42.3553 49.326 42.1033 49.186C41.8607 49.0367 41.5107 48.864 41.0533 48.668C40.5773 48.4533 40.1807 48.248 39.8633 48.052C39.5553 47.8467 39.322 47.6133 39.1633 47.352C39.014 47.0813 38.9393 46.7453 38.9393 46.344C38.9393 45.7093 39.1773 45.224 39.6533 44.888C40.1387 44.5427 40.778 44.37 41.5713 44.37C42.0193 44.37 42.3927 44.4307 42.6913 44.552C42.9993 44.664 43.228 44.818 43.3773 45.014C43.536 45.21 43.6153 45.4247 43.6153 45.658C43.6153 45.91 43.5267 46.1153 43.3493 46.274C43.1813 46.4233 42.934 46.498 42.6073 46.498C42.6073 46.0313 42.5093 45.6673 42.3133 45.406C42.1173 45.1447 41.814 45.014 41.4033 45.014C41.086 45.014 40.8293 45.0607 40.6333 45.154C40.4373 45.2473 40.2927 45.378 40.1993 45.546C40.1153 45.714 40.0733 45.91 40.0733 46.134C40.0733 46.3673 40.1293 46.5633 40.2413 46.722C40.3627 46.8807 40.5493 47.03 40.8013 47.17C41.0627 47.3007 41.3987 47.45 41.8093 47.618C42.304 47.8233 42.7053 48.0287 43.0133 48.234C43.3213 48.4393 43.5453 48.6773 43.6853 48.948C43.8347 49.2187 43.9093 49.55 43.9093 49.942C43.9093 50.67 43.6573 51.2207 43.1533 51.594C42.6493 51.958 41.982 52.14 41.1513 52.14ZM47.6877 52.14C46.9784 52.14 46.4604 51.9813 46.1337 51.664C45.8164 51.3373 45.6577 50.7727 45.6577 49.97V45.294H44.5937V44.734C44.7617 44.734 44.9484 44.7013 45.1537 44.636C45.3591 44.5613 45.5364 44.4447 45.6857 44.286C45.8444 44.118 45.9751 43.9127 46.0777 43.67C46.1804 43.4273 46.2644 43.1287 46.3297 42.774H46.9737V44.496H48.8077V45.294H46.9737V50.012C46.9737 50.488 47.0717 50.838 47.2677 51.062C47.4637 51.286 47.7204 51.398 48.0377 51.398C48.2057 51.398 48.3597 51.3887 48.4997 51.37C48.6397 51.3513 48.7844 51.328 48.9337 51.3V51.916C48.8124 51.972 48.6304 52.0233 48.3877 52.07C48.1451 52.1167 47.9117 52.14 47.6877 52.14ZM56.5043 52.14C55.487 52.14 54.689 51.804 54.1103 51.132C53.541 50.46 53.2563 49.5173 53.2563 48.304C53.2563 46.9973 53.527 46.0127 54.0683 45.35C54.6097 44.6873 55.375 44.356 56.3643 44.356C57.2697 44.356 57.979 44.636 58.4923 45.196C59.015 45.756 59.2763 46.5913 59.2763 47.702V48.346H54.6143C54.633 49.0273 54.7217 49.5827 54.8803 50.012C55.039 50.4413 55.2677 50.7587 55.5663 50.964C55.8743 51.16 56.2523 51.258 56.7003 51.258C57.027 51.258 57.3163 51.2113 57.5683 51.118C57.8297 51.0247 58.0537 50.9033 58.2403 50.754C58.4363 50.6047 58.5903 50.446 58.7023 50.278C58.7677 50.306 58.8283 50.362 58.8843 50.446C58.9403 50.53 58.9683 50.6327 58.9683 50.754C58.9683 50.9407 58.8797 51.1413 58.7023 51.356C58.525 51.5707 58.2543 51.7573 57.8903 51.916C57.5263 52.0653 57.0643 52.14 56.5043 52.14ZM57.8623 47.59C57.8623 47.0953 57.811 46.6613 57.7083 46.288C57.615 45.9147 57.4563 45.6253 57.2323 45.42C57.0083 45.2147 56.7097 45.112 56.3363 45.112C55.991 45.112 55.697 45.21 55.4543 45.406C55.221 45.5927 55.0343 45.868 54.8943 46.232C54.7637 46.596 54.6797 47.0487 54.6423 47.59H57.8623ZM63.4045 52.14C62.7885 52.14 62.2658 52.0047 61.8365 51.734C61.4165 51.4633 61.0945 51.0433 60.8705 50.474C60.6558 49.8953 60.5485 49.158 60.5485 48.262C60.5485 47.3567 60.6558 46.6193 60.8705 46.05C61.0945 45.4713 61.4165 45.0467 61.8365 44.776C62.2658 44.496 62.7885 44.356 63.4045 44.356C63.9458 44.356 64.3845 44.4727 64.7205 44.706C65.0658 44.93 65.3412 45.224 65.5465 45.588H65.6305C65.6118 45.4293 65.5932 45.2613 65.5745 45.084C65.5652 44.9067 65.5558 44.7293 65.5465 44.552C65.5465 44.3653 65.5465 44.1973 65.5465 44.048V42.9C65.5465 42.62 65.4905 42.4147 65.3785 42.284C65.2758 42.144 65.1358 42.0553 64.9585 42.018C64.7905 41.9713 64.6038 41.948 64.3985 41.948H64.2865V41.36H66.8625V50.46C66.8625 50.7307 66.9138 50.936 67.0165 51.076C67.1285 51.216 67.2685 51.3093 67.4365 51.356C67.6138 51.3933 67.8052 51.412 68.0105 51.412H68.1225V52H65.7565L65.6025 50.74H65.5465C65.3412 51.1693 65.0705 51.51 64.7345 51.762C64.3985 52.014 63.9552 52.14 63.4045 52.14ZM63.6425 51.244C64.3705 51.244 64.8698 51.0013 65.1405 50.516C65.4112 50.0213 65.5465 49.27 65.5465 48.262C65.5465 47.6087 65.4858 47.0627 65.3645 46.624C65.2525 46.176 65.0565 45.8353 64.7765 45.602C64.5058 45.3687 64.1232 45.252 63.6285 45.252C63.2178 45.252 62.8865 45.3687 62.6345 45.602C62.3825 45.8353 62.1958 46.176 62.0745 46.624C61.9625 47.072 61.9065 47.6227 61.9065 48.276C61.9065 48.9387 61.9625 49.4893 62.0745 49.928C62.1958 50.3667 62.3825 50.698 62.6345 50.922C62.8958 51.1367 63.2318 51.244 63.6425 51.244ZM68.5001 52V51.412H68.6821C68.8875 51.412 69.0741 51.3933 69.2421 51.356C69.4195 51.3093 69.5595 51.2207 69.6621 51.09C69.7741 50.95 69.8301 50.7447 69.8301 50.474V46.036C69.8301 45.756 69.7741 45.5507 69.6621 45.42C69.5595 45.28 69.4195 45.1913 69.2421 45.154C69.0741 45.1073 68.8875 45.084 68.6821 45.084H68.6401V44.496H71.1461V50.404C71.1461 50.6933 71.1975 50.9127 71.3001 51.062C71.4028 51.202 71.5428 51.2953 71.7201 51.342C71.8975 51.3887 72.0888 51.412 72.2941 51.412H72.4761V52H68.5001ZM70.4321 43.096C70.2081 43.096 70.0168 43.0307 69.8581 42.9C69.7088 42.7693 69.6341 42.5453 69.6341 42.228C69.6341 41.9013 69.7088 41.6773 69.8581 41.556C70.0168 41.4253 70.2081 41.36 70.4321 41.36C70.6468 41.36 70.8335 41.4253 70.9921 41.556C71.1508 41.6773 71.2301 41.9013 71.2301 42.228C71.2301 42.5453 71.1508 42.7693 70.9921 42.9C70.8335 43.0307 70.6468 43.096 70.4321 43.096ZM75.8225 52.14C75.1132 52.14 74.5952 51.9813 74.2685 51.664C73.9512 51.3373 73.7925 50.7727 73.7925 49.97V45.294H72.7285V44.734C72.8965 44.734 73.0832 44.7013 73.2885 44.636C73.4938 44.5613 73.6712 44.4447 73.8205 44.286C73.9792 44.118 74.1098 43.9127 74.2125 43.67C74.3152 43.4273 74.3992 43.1287 74.4645 42.774H75.1085V44.496H76.9425V45.294H75.1085V50.012C75.1085 50.488 75.2065 50.838 75.4025 51.062C75.5985 51.286 75.8552 51.398 76.1725 51.398C76.3405 51.398 76.4945 51.3887 76.6345 51.37C76.7745 51.3513 76.9192 51.328 77.0685 51.3V51.916C76.9472 51.972 76.7652 52.0233 76.5225 52.07C76.2798 52.1167 76.0465 52.14 75.8225 52.14ZM81.2024 52.14C80.185 52.14 79.387 51.804 78.8084 51.132C78.239 50.46 77.9544 49.5173 77.9544 48.304C77.9544 46.9973 78.225 46.0127 78.7664 45.35C79.3077 44.6873 80.073 44.356 81.0624 44.356C81.9677 44.356 82.677 44.636 83.1904 45.196C83.713 45.756 83.9744 46.5913 83.9744 47.702V48.346H79.3124C79.331 49.0273 79.4197 49.5827 79.5784 50.012C79.737 50.4413 79.9657 50.7587 80.2644 50.964C80.5724 51.16 80.9504 51.258 81.3984 51.258C81.725 51.258 82.0144 51.2113 82.2664 51.118C82.5277 51.0247 82.7517 50.9033 82.9384 50.754C83.1344 50.6047 83.2884 50.446 83.4004 50.278C83.4657 50.306 83.5264 50.362 83.5824 50.446C83.6384 50.53 83.6664 50.6327 83.6664 50.754C83.6664 50.9407 83.5777 51.1413 83.4004 51.356C83.223 51.5707 82.9524 51.7573 82.5884 51.916C82.2244 52.0653 81.7624 52.14 81.2024 52.14ZM82.5604 47.59C82.5604 47.0953 82.509 46.6613 82.4064 46.288C82.313 45.9147 82.1544 45.6253 81.9304 45.42C81.7064 45.2147 81.4077 45.112 81.0344 45.112C80.689 45.112 80.395 45.21 80.1524 45.406C79.919 45.5927 79.7324 45.868 79.5924 46.232C79.4617 46.596 79.3777 47.0487 79.3404 47.59H82.5604ZM88.1026 52.14C87.4866 52.14 86.9639 52.0047 86.5346 51.734C86.1146 51.4633 85.7926 51.0433 85.5686 50.474C85.3539 49.8953 85.2466 49.158 85.2466 48.262C85.2466 47.3567 85.3539 46.6193 85.5686 46.05C85.7926 45.4713 86.1146 45.0467 86.5346 44.776C86.9639 44.496 87.4866 44.356 88.1026 44.356C88.6439 44.356 89.0826 44.4727 89.4186 44.706C89.7639 44.93 90.0392 45.224 90.2446 45.588H90.3286C90.3099 45.4293 90.2912 45.2613 90.2726 45.084C90.2632 44.9067 90.2539 44.7293 90.2446 44.552C90.2446 44.3653 90.2446 44.1973 90.2446 44.048V42.9C90.2446 42.62 90.1886 42.4147 90.0766 42.284C89.9739 42.144 89.8339 42.0553 89.6566 42.018C89.4886 41.9713 89.3019 41.948 89.0966 41.948H88.9846V41.36H91.5606V50.46C91.5606 50.7307 91.6119 50.936 91.7146 51.076C91.8266 51.216 91.9666 51.3093 92.1346 51.356C92.3119 51.3933 92.5032 51.412 92.7086 51.412H92.8206V52H90.4546L90.3006 50.74H90.2446C90.0392 51.1693 89.7686 51.51 89.4326 51.762C89.0966 52.014 88.6532 52.14 88.1026 52.14ZM88.3406 51.244C89.0686 51.244 89.5679 51.0013 89.8386 50.516C90.1092 50.0213 90.2446 49.27 90.2446 48.262C90.2446 47.6087 90.1839 47.0627 90.0626 46.624C89.9506 46.176 89.7546 45.8353 89.4746 45.602C89.2039 45.3687 88.8212 45.252 88.3266 45.252C87.9159 45.252 87.5846 45.3687 87.3326 45.602C87.0806 45.8353 86.8939 46.176 86.7726 46.624C86.6606 47.072 86.6046 47.6227 86.6046 48.276C86.6046 48.9387 86.6606 49.4893 86.7726 49.928C86.8939 50.3667 87.0806 50.698 87.3326 50.922C87.5939 51.1367 87.9299 51.244 88.3406 51.244Z" fill="#2B303B"/>
<path d="M123.854 52V50.978L126.192 48.276C126.565 47.8467 126.878 47.4593 127.13 47.114C127.382 46.7687 127.583 46.4467 127.732 46.148C127.891 45.8493 128.003 45.5553 128.068 45.266C128.143 44.9673 128.18 44.6593 128.18 44.342C128.18 43.9873 128.129 43.6793 128.026 43.418C127.923 43.1473 127.765 42.9373 127.55 42.788C127.345 42.6387 127.079 42.564 126.752 42.564C126.332 42.564 126.01 42.662 125.786 42.858C125.562 43.054 125.408 43.3107 125.324 43.628C125.249 43.936 125.212 44.2767 125.212 44.65C124.988 44.65 124.783 44.6267 124.596 44.58C124.419 44.524 124.274 44.4307 124.162 44.3C124.059 44.16 124.008 43.9733 124.008 43.74C124.008 43.376 124.111 43.054 124.316 42.774C124.521 42.494 124.829 42.2747 125.24 42.116C125.651 41.948 126.155 41.864 126.752 41.864C127.34 41.864 127.844 41.962 128.264 42.158C128.693 42.3447 129.02 42.6153 129.244 42.97C129.477 43.3153 129.594 43.726 129.594 44.202C129.594 44.4633 129.557 44.72 129.482 44.972C129.417 45.224 129.319 45.476 129.188 45.728C129.057 45.98 128.899 46.2413 128.712 46.512C128.525 46.7733 128.311 47.0487 128.068 47.338C127.825 47.6273 127.555 47.9353 127.256 48.262L124.89 50.88H128.124C128.544 50.88 128.829 50.7727 128.978 50.558C129.127 50.3433 129.235 50.1007 129.3 49.83L129.356 49.578H129.944L129.874 52H123.854ZM133.798 52.154C133.276 52.154 132.865 52.0933 132.566 51.972C132.268 51.8507 132.058 51.7013 131.936 51.524C131.824 51.3373 131.768 51.146 131.768 50.95C131.768 50.7727 131.81 50.628 131.894 50.516C131.988 50.3947 132.086 50.3153 132.188 50.278C132.272 50.474 132.384 50.656 132.524 50.824C132.664 50.992 132.842 51.1273 133.056 51.23C133.271 51.3327 133.523 51.384 133.812 51.384C134.335 51.384 134.76 51.23 135.086 50.922C135.422 50.614 135.674 50.152 135.842 49.536C136.02 48.9107 136.122 48.1313 136.15 47.198C136.02 47.3567 135.856 47.5107 135.66 47.66C135.464 47.8093 135.236 47.9307 134.974 48.024C134.713 48.108 134.419 48.15 134.092 48.15C133.551 48.15 133.07 48.0473 132.65 47.842C132.24 47.6273 131.918 47.31 131.684 46.89C131.451 46.4607 131.334 45.9333 131.334 45.308C131.334 44.636 131.451 44.0433 131.684 43.53C131.927 43.0073 132.272 42.6013 132.72 42.312C133.168 42.0133 133.705 41.864 134.33 41.864C134.965 41.864 135.525 42.0273 136.01 42.354C136.505 42.6807 136.892 43.1893 137.172 43.88C137.452 44.5707 137.592 45.4667 137.592 46.568C137.592 47.3053 137.522 48.01 137.382 48.682C137.242 49.3447 137.018 49.9373 136.71 50.46C136.412 50.9827 136.02 51.398 135.534 51.706C135.058 52.0047 134.48 52.154 133.798 52.154ZM134.4 47.324C134.708 47.324 134.979 47.2727 135.212 47.17C135.446 47.058 135.642 46.918 135.8 46.75C135.959 46.5727 136.08 46.386 136.164 46.19C136.155 45.5647 136.104 45.028 136.01 44.58C135.917 44.132 135.791 43.7633 135.632 43.474C135.474 43.1847 135.282 42.9747 135.058 42.844C134.844 42.704 134.601 42.634 134.33 42.634C134.004 42.634 133.724 42.732 133.49 42.928C133.257 43.124 133.08 43.4087 132.958 43.782C132.837 44.1553 132.776 44.6173 132.776 45.168C132.776 45.6813 132.837 46.0967 132.958 46.414C133.08 46.7313 133.262 46.9647 133.504 47.114C133.747 47.254 134.046 47.324 134.4 47.324ZM146.871 52.14C145.882 52.14 145.061 51.9253 144.407 51.496C143.754 51.0667 143.264 50.4647 142.937 49.69C142.62 48.9153 142.461 48.01 142.461 46.974C142.461 45.938 142.62 45.0373 142.937 44.272C143.264 43.5067 143.754 42.914 144.407 42.494C145.07 42.0647 145.896 41.85 146.885 41.85C147.828 41.85 148.621 42.0647 149.265 42.494C149.919 42.914 150.413 43.5113 150.749 44.286C151.095 45.0513 151.267 45.952 151.267 46.988C151.267 48.024 151.095 48.9293 150.749 49.704C150.413 50.4693 149.919 51.0667 149.265 51.496C148.612 51.9253 147.814 52.14 146.871 52.14ZM146.871 51.384C147.394 51.384 147.833 51.286 148.187 51.09C148.551 50.894 148.845 50.6093 149.069 50.236C149.293 49.8533 149.457 49.3913 149.559 48.85C149.662 48.2993 149.713 47.6787 149.713 46.988C149.713 46.2973 149.662 45.6813 149.559 45.14C149.457 44.5987 149.293 44.1413 149.069 43.768C148.855 43.3853 148.565 43.096 148.201 42.9C147.847 42.704 147.408 42.606 146.885 42.606C146.363 42.606 145.919 42.704 145.555 42.9C145.191 43.096 144.893 43.3853 144.659 43.768C144.435 44.1413 144.272 44.5987 144.169 45.14C144.067 45.6813 144.015 46.2973 144.015 46.988C144.015 47.6787 144.067 48.2993 144.169 48.85C144.272 49.3913 144.435 49.8533 144.659 50.236C144.893 50.6093 145.191 50.894 145.555 51.09C145.919 51.286 146.358 51.384 146.871 51.384ZM155.83 52.14C155.214 52.14 154.663 52.0093 154.178 51.748C153.702 51.4867 153.324 51.076 153.044 50.516C152.773 49.9467 152.638 49.2047 152.638 48.29C152.638 47.2913 152.773 46.5073 153.044 45.938C153.324 45.3593 153.697 44.9533 154.164 44.72C154.64 44.4773 155.172 44.356 155.76 44.356C156.152 44.356 156.535 44.4073 156.908 44.51C157.281 44.6127 157.589 44.7713 157.832 44.986C158.075 45.1913 158.196 45.4573 158.196 45.784C158.196 45.9987 158.149 46.1713 158.056 46.302C157.963 46.4327 157.823 46.526 157.636 46.582C157.459 46.638 157.23 46.666 156.95 46.666C156.95 46.3673 156.913 46.0967 156.838 45.854C156.773 45.6113 156.656 45.42 156.488 45.28C156.32 45.1307 156.077 45.056 155.76 45.056C155.405 45.056 155.093 45.1493 154.822 45.336C154.561 45.5227 154.355 45.8493 154.206 46.316C154.066 46.7827 153.996 47.436 153.996 48.276C153.996 48.9387 154.066 49.4893 154.206 49.928C154.355 50.3667 154.584 50.6933 154.892 50.908C155.2 51.1227 155.606 51.23 156.11 51.23C156.399 51.23 156.665 51.188 156.908 51.104C157.151 51.02 157.361 50.9033 157.538 50.754C157.725 50.6047 157.869 50.4367 157.972 50.25C158.047 50.306 158.103 50.3807 158.14 50.474C158.187 50.558 158.21 50.6653 158.21 50.796C158.21 51.0107 158.121 51.2207 157.944 51.426C157.767 51.6313 157.501 51.804 157.146 51.944C156.801 52.0747 156.362 52.14 155.83 52.14ZM161.919 52.14C161.209 52.14 160.691 51.9813 160.365 51.664C160.047 51.3373 159.889 50.7727 159.889 49.97V45.294H158.825V44.734C158.993 44.734 159.179 44.7013 159.385 44.636C159.59 44.5613 159.767 44.4447 159.917 44.286C160.075 44.118 160.206 43.9127 160.309 43.67C160.411 43.4273 160.495 43.1287 160.561 42.774H161.205V44.496H163.039V45.294H161.205V50.012C161.205 50.488 161.303 50.838 161.499 51.062C161.695 51.286 161.951 51.398 162.269 51.398C162.437 51.398 162.591 51.3887 162.731 51.37C162.871 51.3513 163.015 51.328 163.165 51.3V51.916C163.043 51.972 162.861 52.0233 162.619 52.07C162.376 52.1167 162.143 52.14 161.919 52.14ZM167.571 52V50.978L169.909 48.276C170.283 47.8467 170.595 47.4593 170.847 47.114C171.099 46.7687 171.3 46.4467 171.449 46.148C171.608 45.8493 171.72 45.5553 171.785 45.266C171.86 44.9673 171.897 44.6593 171.897 44.342C171.897 43.9873 171.846 43.6793 171.743 43.418C171.641 43.1473 171.482 42.9373 171.267 42.788C171.062 42.6387 170.796 42.564 170.469 42.564C170.049 42.564 169.727 42.662 169.503 42.858C169.279 43.054 169.125 43.3107 169.041 43.628C168.967 43.936 168.929 44.2767 168.929 44.65C168.705 44.65 168.5 44.6267 168.313 44.58C168.136 44.524 167.991 44.4307 167.879 44.3C167.777 44.16 167.725 43.9733 167.725 43.74C167.725 43.376 167.828 43.054 168.033 42.774C168.239 42.494 168.547 42.2747 168.957 42.116C169.368 41.948 169.872 41.864 170.469 41.864C171.057 41.864 171.561 41.962 171.981 42.158C172.411 42.3447 172.737 42.6153 172.961 42.97C173.195 43.3153 173.311 43.726 173.311 44.202C173.311 44.4633 173.274 44.72 173.199 44.972C173.134 45.224 173.036 45.476 172.905 45.728C172.775 45.98 172.616 46.2413 172.429 46.512C172.243 46.7733 172.028 47.0487 171.785 47.338C171.543 47.6273 171.272 47.9353 170.973 48.262L168.607 50.88H171.841C172.261 50.88 172.546 50.7727 172.695 50.558C172.845 50.3433 172.952 50.1007 173.017 49.83L173.073 49.578H173.661L173.591 52H167.571ZM178.258 52.14C177.492 52.14 176.867 51.9253 176.382 51.496C175.896 51.0667 175.537 50.4647 175.304 49.69C175.08 48.9153 174.968 48.01 174.968 46.974C174.968 45.938 175.08 45.0373 175.304 44.272C175.537 43.5067 175.896 42.914 176.382 42.494C176.867 42.074 177.497 41.864 178.272 41.864C179 41.864 179.606 42.074 180.092 42.494C180.577 42.914 180.936 43.5113 181.17 44.286C181.412 45.0513 181.534 45.952 181.534 46.988C181.534 48.024 181.412 48.9293 181.17 49.704C180.927 50.4693 180.563 51.0667 180.078 51.496C179.602 51.9253 178.995 52.14 178.258 52.14ZM178.258 51.384C178.594 51.384 178.878 51.286 179.112 51.09C179.345 50.894 179.532 50.6093 179.672 50.236C179.812 49.8533 179.914 49.3913 179.98 48.85C180.045 48.2993 180.078 47.6787 180.078 46.988C180.078 46.2973 180.045 45.6813 179.98 45.14C179.924 44.5987 179.821 44.1413 179.672 43.768C179.532 43.3947 179.345 43.11 179.112 42.914C178.888 42.718 178.608 42.62 178.272 42.62C177.926 42.62 177.637 42.718 177.404 42.914C177.17 43.11 176.979 43.3947 176.83 43.768C176.69 44.1413 176.587 44.5987 176.522 45.14C176.456 45.6813 176.424 46.2973 176.424 46.988C176.424 47.6787 176.456 48.2993 176.522 48.85C176.587 49.3913 176.69 49.8533 176.83 50.236C176.97 50.6093 177.156 50.894 177.39 51.09C177.632 51.286 177.922 51.384 178.258 51.384ZM182.812 52V50.978L185.15 48.276C185.523 47.8467 185.836 47.4593 186.088 47.114C186.34 46.7687 186.54 46.4467 186.69 46.148C186.848 45.8493 186.96 45.5553 187.026 45.266C187.1 44.9673 187.138 44.6593 187.138 44.342C187.138 43.9873 187.086 43.6793 186.984 43.418C186.881 43.1473 186.722 42.9373 186.508 42.788C186.302 42.6387 186.036 42.564 185.71 42.564C185.29 42.564 184.968 42.662 184.744 42.858C184.52 43.054 184.366 43.3107 184.282 43.628C184.207 43.936 184.17 44.2767 184.17 44.65C183.946 44.65 183.74 44.6267 183.554 44.58C183.376 44.524 183.232 44.4307 183.12 44.3C183.017 44.16 182.966 43.9733 182.966 43.74C182.966 43.376 183.068 43.054 183.274 42.774C183.479 42.494 183.787 42.2747 184.198 42.116C184.608 41.948 185.112 41.864 185.71 41.864C186.298 41.864 186.802 41.962 187.222 42.158C187.651 42.3447 187.978 42.6153 188.202 42.97C188.435 43.3153 188.552 43.726 188.552 44.202C188.552 44.4633 188.514 44.72 188.44 44.972C188.374 45.224 188.276 45.476 188.146 45.728C188.015 45.98 187.856 46.2413 187.67 46.512C187.483 46.7733 187.268 47.0487 187.026 47.338C186.783 47.6273 186.512 47.9353 186.214 48.262L183.848 50.88H187.082C187.502 50.88 187.786 50.7727 187.936 50.558C188.085 50.3433 188.192 50.1007 188.258 49.83L188.314 49.578H188.902L188.832 52H182.812ZM192.588 52V51.412H192.98C193.195 51.412 193.386 51.3887 193.554 51.342C193.731 51.2953 193.871 51.202 193.974 51.062C194.077 50.9127 194.128 50.6933 194.128 50.404V49.256H189.816V48.682L194.142 42.004H195.472V48.472H197.208V49.256H195.472V50.404C195.472 50.6933 195.523 50.9127 195.626 51.062C195.729 51.202 195.869 51.2953 196.046 51.342C196.223 51.3887 196.415 51.412 196.62 51.412H196.802V52H192.588ZM190.824 48.472H194.128V45.882C194.128 45.6767 194.128 45.4527 194.128 45.21C194.137 44.9673 194.142 44.7153 194.142 44.454C194.151 44.1927 194.161 43.936 194.17 43.684C194.189 43.432 194.207 43.1987 194.226 42.984C194.179 43.0773 194.105 43.2173 194.002 43.404C193.899 43.5907 193.783 43.796 193.652 44.02C193.521 44.2347 193.395 44.4447 193.274 44.65C193.153 44.846 193.05 45.0093 192.966 45.14L190.824 48.472Z" fill="#2B303B"/>
<defs>
<clipPath id="clip0_3515_7459">
<path d="M123 8C123 5.79086 124.791 4 127 4H536C538.209 4 540 5.79086 540 8V18C540 20.2091 538.209 22 536 22H127C124.791 22 123 20.2091 123 18V8Z" fill="white"/>
</clipPath>
</defs>
</svg>
