<svg width="44" height="18" viewBox="0 0 44 18" fill="none" xmlns="http://www.w3.org/2000/svg">
<rect width="44" height="18" rx="4" fill="#E0E4EA"/>
<path d="M7.05682 13V4.27273H10.0057C10.6875 4.27273 11.2472 4.3892 11.6847 4.62216C12.1222 4.85227 12.446 5.16903 12.6562 5.57244C12.8665 5.97585 12.9716 6.43466 12.9716 6.94886C12.9716 7.46307 12.8665 7.91903 12.6562 8.31676C12.446 8.71449 12.1236 9.02699 11.6889 9.25426C11.2543 9.47869 10.6989 9.59091 10.0227 9.59091H7.63636V8.63636H9.98864C10.4545 8.63636 10.8295 8.56818 11.1136 8.43182C11.4006 8.29545 11.608 8.10227 11.7358 7.85227C11.8665 7.59943 11.9318 7.2983 11.9318 6.94886C11.9318 6.59943 11.8665 6.29403 11.7358 6.03267C11.6051 5.77131 11.3963 5.5696 11.1094 5.42756C10.8224 5.28267 10.4432 5.21023 9.97159 5.21023H8.11364V13H7.05682ZM11.1648 9.07955L13.3125 13H12.0852L9.97159 9.07955H11.1648ZM17.0702 13.1364C16.4396 13.1364 15.8955 12.9972 15.4381 12.7188C14.9836 12.4375 14.6327 12.0455 14.3856 11.5426C14.1413 11.0369 14.0191 10.4489 14.0191 9.77841C14.0191 9.10795 14.1413 8.51705 14.3856 8.00568C14.6327 7.49148 14.9765 7.09091 15.4168 6.80398C15.86 6.5142 16.3771 6.36932 16.968 6.36932C17.3089 6.36932 17.6455 6.42614 17.9779 6.53977C18.3103 6.65341 18.6129 6.83807 18.8856 7.09375C19.1583 7.34659 19.3756 7.68182 19.5376 8.09943C19.6995 8.51705 19.7805 9.03125 19.7805 9.64205V10.0682H14.735V9.19886H18.7577C18.7577 8.82955 18.6839 8.5 18.5362 8.21023C18.3913 7.92045 18.1839 7.69176 17.914 7.52415C17.6469 7.35653 17.3316 7.27273 16.968 7.27273C16.5674 7.27273 16.2208 7.37216 15.9282 7.57102C15.6384 7.76705 15.4154 8.02273 15.2592 8.33807C15.1029 8.65341 15.0248 8.99148 15.0248 9.35227V9.93182C15.0248 10.4261 15.11 10.8452 15.2805 11.1889C15.4538 11.5298 15.6938 11.7898 16.0006 11.9688C16.3075 12.1449 16.664 12.233 17.0702 12.233C17.3344 12.233 17.5731 12.196 17.7862 12.1222C18.0021 12.0455 18.1881 11.9318 18.3444 11.7812C18.5006 11.6278 18.6214 11.4375 18.7066 11.2102L19.6782 11.483C19.5759 11.8125 19.404 12.1023 19.1626 12.3523C18.9211 12.5994 18.6228 12.7926 18.2677 12.9318C17.9126 13.0682 17.5134 13.1364 17.0702 13.1364ZM23.0364 13.1534C22.6217 13.1534 22.2452 13.0753 21.9072 12.919C21.5691 12.7599 21.3006 12.5312 21.1018 12.233C20.9029 11.9318 20.8035 11.5682 20.8035 11.142C20.8035 10.767 20.8773 10.4631 21.0251 10.2301C21.1728 9.99432 21.3702 9.80966 21.6174 9.67614C21.8646 9.54261 22.1373 9.44318 22.4356 9.37784C22.7367 9.30966 23.0393 9.25568 23.3433 9.21591C23.741 9.16477 24.0634 9.12642 24.3106 9.10085C24.5606 9.07244 24.7424 9.02557 24.856 8.96023C24.9725 8.89489 25.0308 8.78125 25.0308 8.61932V8.58523C25.0308 8.16477 24.9157 7.83807 24.6856 7.60511C24.4583 7.37216 24.1131 7.25568 23.6501 7.25568C23.17 7.25568 22.7935 7.3608 22.5208 7.57102C22.2481 7.78125 22.0563 8.00568 21.9455 8.24432L20.991 7.90341C21.1614 7.50568 21.3887 7.19602 21.6728 6.97443C21.9597 6.75 22.2722 6.59375 22.6103 6.50568C22.9512 6.41477 23.2864 6.36932 23.616 6.36932C23.8262 6.36932 24.0677 6.39489 24.3404 6.44602C24.616 6.49432 24.8816 6.59517 25.1373 6.74858C25.3958 6.90199 25.6103 7.13352 25.7808 7.44318C25.9512 7.75284 26.0364 8.16761 26.0364 8.6875V13H25.0308V12.1136H24.9796C24.9114 12.2557 24.7978 12.4077 24.6387 12.5696C24.4796 12.7315 24.268 12.8693 24.0038 12.983C23.7396 13.0966 23.4171 13.1534 23.0364 13.1534ZM23.1898 12.25C23.5876 12.25 23.9228 12.1719 24.1955 12.0156C24.4711 11.8594 24.6785 11.6577 24.8177 11.4105C24.9597 11.1634 25.0308 10.9034 25.0308 10.6307V9.71023C24.9881 9.76136 24.8944 9.80824 24.7495 9.85085C24.6075 9.89062 24.4427 9.92614 24.2552 9.95739C24.0705 9.9858 23.8901 10.0114 23.714 10.0341C23.5407 10.054 23.4001 10.071 23.2921 10.0852C23.0308 10.1193 22.7864 10.1747 22.5592 10.2514C22.3347 10.3253 22.1529 10.4375 22.0137 10.5881C21.8773 10.7358 21.8092 10.9375 21.8092 11.1932C21.8092 11.5426 21.9384 11.8068 22.1969 11.9858C22.4583 12.1619 22.7893 12.25 23.1898 12.25ZM30.3311 13.1364C29.7175 13.1364 29.1891 12.9915 28.7459 12.7017C28.3027 12.4119 27.9618 12.0128 27.7232 11.5043C27.4845 10.9957 27.3652 10.4148 27.3652 9.76136C27.3652 9.09659 27.4874 8.50994 27.7317 8.00142C27.9788 7.49006 28.3226 7.09091 28.7629 6.80398C29.2061 6.5142 29.7232 6.36932 30.3141 6.36932C30.7743 6.36932 31.1891 6.45455 31.5584 6.625C31.9277 6.79545 32.2303 7.03409 32.4661 7.34091C32.7018 7.64773 32.8482 8.00568 32.905 8.41477H31.8993C31.8226 8.11648 31.6521 7.85227 31.3879 7.62216C31.1266 7.3892 30.7743 7.27273 30.3311 7.27273C29.9391 7.27273 29.5953 7.375 29.2999 7.57955C29.0072 7.78125 28.7786 8.06676 28.6138 8.43608C28.4518 8.80256 28.3709 9.23295 28.3709 9.72727C28.3709 10.233 28.4504 10.6733 28.6095 11.0483C28.7714 11.4233 28.9987 11.7145 29.2913 11.9219C29.5868 12.1293 29.9334 12.233 30.3311 12.233C30.5925 12.233 30.8297 12.1875 31.0428 12.0966C31.2558 12.0057 31.4362 11.875 31.5839 11.7045C31.7317 11.5341 31.8368 11.3295 31.8993 11.0909H32.905C32.8482 11.4773 32.7075 11.8253 32.4831 12.1349C32.2615 12.4418 31.9675 12.6861 31.601 12.8679C31.2374 13.0469 30.8141 13.1364 30.3311 13.1364ZM37.0217 6.45455V7.30682H33.6297V6.45455H37.0217ZM34.6183 4.88636H35.624V11.125C35.624 11.4091 35.6652 11.6222 35.7476 11.7642C35.8328 11.9034 35.9408 11.9972 36.0714 12.0455C36.205 12.0909 36.3456 12.1136 36.4933 12.1136C36.6041 12.1136 36.695 12.108 36.7661 12.0966C36.8371 12.0824 36.8939 12.071 36.9365 12.0625L37.1411 12.9659C37.0729 12.9915 36.9777 13.017 36.8555 13.0426C36.7334 13.071 36.5786 13.0852 36.3911 13.0852C36.107 13.0852 35.8286 13.0241 35.5558 12.902C35.2859 12.7798 35.0615 12.5938 34.8825 12.3438C34.7064 12.0938 34.6183 11.7784 34.6183 11.3977V4.88636Z" fill="#0E121B"/>
</svg>
