<svg width="42" height="12" viewBox="0 0 42 12" fill="none" xmlns="http://www.w3.org/2000/svg">
<path d="M0.0568182 9V0.272727H3.00568C3.6875 0.272727 4.24716 0.389204 4.68466 0.622159C5.12216 0.852272 5.44602 1.16903 5.65625 1.57244C5.86648 1.97585 5.97159 2.43466 5.97159 2.94886C5.97159 3.46307 5.86648 3.91903 5.65625 4.31676C5.44602 4.71449 5.12358 5.02699 4.68892 5.25426C4.25426 5.47869 3.69886 5.59091 3.02273 5.59091H0.636364V4.63636H2.98864C3.45455 4.63636 3.82955 4.56818 4.11364 4.43182C4.40057 4.29545 4.60795 4.10227 4.7358 3.85227C4.86648 3.59943 4.93182 3.2983 4.93182 2.94886C4.93182 2.59943 4.86648 2.29403 4.7358 2.03267C4.60511 1.77131 4.39631 1.5696 4.10938 1.42756C3.82244 1.28267 3.44318 1.21023 2.97159 1.21023H1.11364V9H0.0568182ZM4.16477 5.07955L6.3125 9H5.08523L2.97159 5.07955H4.16477ZM10.0702 9.13636C9.43956 9.13636 8.89553 8.99716 8.43814 8.71875C7.98359 8.4375 7.63274 8.04545 7.38558 7.54261C7.14126 7.03693 7.01911 6.44886 7.01911 5.77841C7.01911 5.10795 7.14126 4.51705 7.38558 4.00568C7.63274 3.49148 7.97649 3.09091 8.41683 2.80398C8.86001 2.5142 9.37706 2.36932 9.96797 2.36932C10.3089 2.36932 10.6455 2.42614 10.9779 2.53977C11.3103 2.65341 11.6129 2.83807 11.8856 3.09375C12.1583 3.34659 12.3756 3.68182 12.5376 4.09943C12.6995 4.51705 12.7805 5.03125 12.7805 5.64205V6.06818H7.73501V5.19886H11.7577C11.7577 4.82955 11.6839 4.5 11.5362 4.21023C11.3913 3.92045 11.1839 3.69176 10.914 3.52415C10.6469 3.35653 10.3316 3.27273 9.96797 3.27273C9.5674 3.27273 9.22081 3.37216 8.9282 3.57102C8.63842 3.76705 8.41541 4.02273 8.25916 4.33807C8.10291 4.65341 8.02479 4.99148 8.02479 5.35227V5.93182C8.02479 6.42614 8.11001 6.84517 8.28047 7.18892C8.45376 7.52983 8.69382 7.78977 9.00064 7.96875C9.30746 8.14489 9.66399 8.23295 10.0702 8.23295C10.3344 8.23295 10.5731 8.19602 10.7862 8.12216C11.0021 8.04545 11.1881 7.93182 11.3444 7.78125C11.5006 7.62784 11.6214 7.4375 11.7066 7.21023L12.6782 7.48295C12.5759 7.8125 12.404 8.10227 12.1626 8.35227C11.9211 8.59943 11.6228 8.79261 11.2677 8.93182C10.9126 9.06818 10.5134 9.13636 10.0702 9.13636ZM16.7694 9.13636C16.1558 9.13636 15.6273 8.99148 15.1842 8.7017C14.741 8.41193 14.4001 8.01278 14.1614 7.50426C13.9228 6.99574 13.8035 6.41477 13.8035 5.76136C13.8035 5.09659 13.9256 4.50994 14.17 4.00142C14.4171 3.49006 14.7609 3.09091 15.2012 2.80398C15.6444 2.5142 16.1614 2.36932 16.7523 2.36932C17.2126 2.36932 17.6273 2.45455 17.9967 2.625C18.366 2.79545 18.6685 3.03409 18.9043 3.34091C19.1401 3.64773 19.2864 4.00568 19.3433 4.41477H18.3376C18.2609 4.11648 18.0904 3.85227 17.8262 3.62216C17.5648 3.3892 17.2126 3.27273 16.7694 3.27273C16.3773 3.27273 16.0336 3.375 15.7381 3.57955C15.4455 3.78125 15.2168 4.06676 15.0521 4.43608C14.8901 4.80256 14.8092 5.23295 14.8092 5.72727C14.8092 6.23295 14.8887 6.6733 15.0478 7.0483C15.2097 7.4233 15.437 7.71449 15.7296 7.92188C16.0251 8.12926 16.3717 8.23295 16.7694 8.23295C17.0308 8.23295 17.268 8.1875 17.481 8.09659C17.6941 8.00568 17.8745 7.875 18.0222 7.70455C18.17 7.53409 18.2751 7.32955 18.3376 7.09091H19.3433C19.2864 7.47727 19.1458 7.82528 18.9214 8.13494C18.6998 8.44176 18.4058 8.68608 18.0393 8.8679C17.6756 9.04688 17.2523 9.13636 16.7694 9.13636ZM20.6134 9V2.45455H21.6191V9H20.6134ZM21.1248 1.36364C20.9288 1.36364 20.7597 1.29687 20.6177 1.16335C20.4785 1.02983 20.4089 0.869318 20.4089 0.681818C20.4089 0.494318 20.4785 0.333807 20.6177 0.200284C20.7597 0.0667613 20.9288 0 21.1248 0C21.3208 0 21.4884 0.0667613 21.6276 0.200284C21.7697 0.333807 21.8407 0.494318 21.8407 0.681818C21.8407 0.869318 21.7697 1.02983 21.6276 1.16335C21.4884 1.29687 21.3208 1.36364 21.1248 1.36364ZM23.2611 11.4545V2.45455H24.2327V3.49432H24.352C24.4259 3.38068 24.5281 3.2358 24.6588 3.05966C24.7923 2.88068 24.9827 2.72159 25.2298 2.58239C25.4798 2.44034 25.8179 2.36932 26.244 2.36932C26.7952 2.36932 27.281 2.5071 27.7014 2.78267C28.1219 3.05824 28.45 3.44886 28.6858 3.95455C28.9216 4.46023 29.0395 5.05682 29.0395 5.74432C29.0395 6.4375 28.9216 7.03835 28.6858 7.54688C28.45 8.05256 28.1233 8.4446 27.7057 8.72301C27.2881 8.99858 26.8065 9.13636 26.2611 9.13636C25.8406 9.13636 25.504 9.06676 25.2511 8.92756C24.9983 8.78551 24.8037 8.625 24.6673 8.44602C24.531 8.2642 24.4259 8.11364 24.352 7.99432H24.2668V11.4545H23.2611ZM24.2497 5.72727C24.2497 6.22159 24.3222 6.65767 24.467 7.03551C24.6119 7.41051 24.8236 7.70455 25.102 7.91761C25.3804 8.12784 25.7213 8.23295 26.1247 8.23295C26.5452 8.23295 26.896 8.12216 27.1773 7.90057C27.4614 7.67614 27.6744 7.375 27.8165 6.99716C27.9614 6.61648 28.0338 6.19318 28.0338 5.72727C28.0338 5.26705 27.9628 4.85227 27.8207 4.48295C27.6815 4.1108 27.4699 3.81676 27.1858 3.60085C26.9045 3.3821 26.5509 3.27273 26.1247 3.27273C25.7156 3.27273 25.3719 3.37642 25.0935 3.58381C24.8151 3.78835 24.6048 4.07528 24.4628 4.4446C24.3207 4.81108 24.2497 5.23864 24.2497 5.72727ZM33.1179 9.13636C32.4872 9.13636 31.9432 8.99716 31.4858 8.71875C31.0312 8.4375 30.6804 8.04545 30.4332 7.54261C30.1889 7.03693 30.0668 6.44886 30.0668 5.77841C30.0668 5.10795 30.1889 4.51705 30.4332 4.00568C30.6804 3.49148 31.0241 3.09091 31.4645 2.80398C31.9077 2.5142 32.4247 2.36932 33.0156 2.36932C33.3565 2.36932 33.6932 2.42614 34.0256 2.53977C34.358 2.65341 34.6605 2.83807 34.9332 3.09375C35.206 3.34659 35.4233 3.68182 35.5852 4.09943C35.7472 4.51705 35.8281 5.03125 35.8281 5.64205V6.06818H30.7827V5.19886H34.8054C34.8054 4.82955 34.7315 4.5 34.5838 4.21023C34.4389 3.92045 34.2315 3.69176 33.9616 3.52415C33.6946 3.35653 33.3793 3.27273 33.0156 3.27273C32.6151 3.27273 32.2685 3.37216 31.9759 3.57102C31.6861 3.76705 31.4631 4.02273 31.3068 4.33807C31.1506 4.65341 31.0724 4.99148 31.0724 5.35227V5.93182C31.0724 6.42614 31.1577 6.84517 31.3281 7.18892C31.5014 7.52983 31.7415 7.78977 32.0483 7.96875C32.3551 8.14489 32.7116 8.23295 33.1179 8.23295C33.3821 8.23295 33.6207 8.19602 33.8338 8.12216C34.0497 8.04545 34.2358 7.93182 34.392 7.78125C34.5483 7.62784 34.669 7.4375 34.7543 7.21023L35.7259 7.48295C35.6236 7.8125 35.4517 8.10227 35.2102 8.35227C34.9688 8.59943 34.6705 8.79261 34.3153 8.93182C33.9602 9.06818 33.5611 9.13636 33.1179 9.13636ZM41.7943 3.92045L40.8909 4.17614C40.8341 4.02557 40.7503 3.87926 40.6395 3.73722C40.5315 3.59233 40.3838 3.47301 40.1963 3.37926C40.0088 3.28551 39.7687 3.23864 39.4761 3.23864C39.0756 3.23864 38.7418 3.33097 38.4747 3.51562C38.2105 3.69744 38.0784 3.92898 38.0784 4.21023C38.0784 4.46023 38.1693 4.65767 38.3511 4.80256C38.533 4.94744 38.817 5.06818 39.2034 5.16477L40.175 5.40341C40.7602 5.54545 41.1963 5.76278 41.4832 6.0554C41.7702 6.34517 41.9136 6.71875 41.9136 7.17614C41.9136 7.55114 41.8057 7.88636 41.5898 8.18182C41.3767 8.47727 41.0784 8.71023 40.6949 8.88068C40.3114 9.05114 39.8653 9.13636 39.3568 9.13636C38.6892 9.13636 38.1366 8.99148 37.6991 8.7017C37.2616 8.41193 36.9847 7.98864 36.8682 7.43182L37.8227 7.19318C37.9136 7.54545 38.0855 7.80966 38.3384 7.9858C38.594 8.16193 38.9278 8.25 39.3398 8.25C39.8085 8.25 40.1807 8.15057 40.4562 7.9517C40.7347 7.75 40.8739 7.50852 40.8739 7.22727C40.8739 7 40.7943 6.80966 40.6352 6.65625C40.4761 6.5 40.2318 6.38352 39.9023 6.30682L38.8114 6.05114C38.2119 5.90909 37.7716 5.68892 37.4903 5.39062C37.2119 5.08949 37.0727 4.71307 37.0727 4.26136C37.0727 3.89205 37.1764 3.56534 37.3838 3.28125C37.594 2.99716 37.8795 2.77415 38.2403 2.61222C38.604 2.45028 39.0159 2.36932 39.4761 2.36932C40.1239 2.36932 40.6324 2.51136 41.0017 2.79545C41.3739 3.07955 41.6381 3.45455 41.7943 3.92045Z" fill="#0E121B"/>
</svg>
