<svg width="16" height="16" viewBox="0 0 16 16" fill="none" xmlns="http://www.w3.org/2000/svg">
<path fill-rule="evenodd" clip-rule="evenodd" d="M2.01055 3.9783C2.01249 3.03712 2.72405 2.19324 3.64772 2.03432C3.83712 2.00124 6.05872 2.00578 6.97787 2.00643C7.88727 2.00708 8.6624 2.33399 9.30454 2.97485C10.668 4.3357 12.0301 5.69785 13.3903 7.06132C14.1953 7.86759 14.2063 9.10519 13.4046 9.91405C12.2481 11.0816 11.0857 12.2433 9.9188 13.3999C9.1106 14.2009 7.873 14.1905 7.06607 13.3856C5.69029 12.0137 4.31452 10.6418 2.94459 9.26405C2.41465 8.73092 2.10201 8.08679 2.0326 7.33372C1.97681 6.73179 2.00925 4.49397 2.01055 3.9783Z" stroke="#2B303B" stroke-width="1.2" stroke-linecap="round" stroke-linejoin="round"/>
<path fill-rule="evenodd" clip-rule="evenodd" d="M6.60475 5.54289C6.60215 6.12277 6.11761 6.59953 5.53189 6.59823C4.95006 6.59693 4.46552 6.11175 4.46877 5.53381C4.47266 4.93057 4.95006 4.46031 5.55719 4.4629C6.13318 4.46485 6.60734 4.95327 6.60475 5.54289Z" stroke="#2B303B" stroke-width="1.2" stroke-linecap="round" stroke-linejoin="round"/>
</svg>
