<svg width="34" height="18" viewBox="0 0 34 18" fill="none" xmlns="http://www.w3.org/2000/svg">
<rect width="34" height="18" rx="4" fill="#E0E4EA"/>
<path d="M9.75 13H7.05682V4.27273H9.86932C10.7159 4.27273 11.4403 4.44744 12.0426 4.79688C12.6449 5.14347 13.1065 5.64205 13.4276 6.29261C13.7486 6.94034 13.9091 7.71591 13.9091 8.61932C13.9091 9.52841 13.7472 10.3111 13.4233 10.9673C13.0994 11.6207 12.6278 12.1236 12.0085 12.4759C11.3892 12.8253 10.6364 13 9.75 13ZM8.11364 12.0625H9.68182C10.4034 12.0625 11.0014 11.9233 11.4759 11.6449C11.9503 11.3665 12.304 10.9702 12.5369 10.456C12.7699 9.94176 12.8864 9.32955 12.8864 8.61932C12.8864 7.91477 12.7713 7.30824 12.5412 6.79972C12.3111 6.28835 11.9673 5.89631 11.5099 5.62358C11.0526 5.34801 10.483 5.21023 9.80114 5.21023H8.11364V12.0625ZM18.0898 13.1364C17.4591 13.1364 16.9151 12.9972 16.4577 12.7188C16.0031 12.4375 15.6523 12.0455 15.4051 11.5426C15.1608 11.0369 15.0386 10.4489 15.0386 9.77841C15.0386 9.10795 15.1608 8.51705 15.4051 8.00568C15.6523 7.49148 15.996 7.09091 16.4364 6.80398C16.8795 6.5142 17.3966 6.36932 17.9875 6.36932C18.3284 6.36932 18.6651 6.42614 18.9974 6.53977C19.3298 6.65341 19.6324 6.83807 19.9051 7.09375C20.1778 7.34659 20.3952 7.68182 20.5571 8.09943C20.719 8.51705 20.8 9.03125 20.8 9.64205V10.0682H15.7545V9.19886H19.7773C19.7773 8.82955 19.7034 8.5 19.5557 8.21023C19.4108 7.92045 19.2034 7.69176 18.9335 7.52415C18.6665 7.35653 18.3511 7.27273 17.9875 7.27273C17.5869 7.27273 17.2403 7.37216 16.9477 7.57102C16.658 7.76705 16.4349 8.02273 16.2787 8.33807C16.1224 8.65341 16.0443 8.99148 16.0443 9.35227V9.93182C16.0443 10.4261 16.1295 10.8452 16.3 11.1889C16.4733 11.5298 16.7134 11.7898 17.0202 11.9688C17.327 12.1449 17.6835 12.233 18.0898 12.233C18.354 12.233 18.5926 12.196 18.8057 12.1222C19.0216 12.0455 19.2077 11.9318 19.3639 11.7812C19.5202 11.6278 19.6409 11.4375 19.7261 11.2102L20.6977 11.483C20.5955 11.8125 20.4236 12.1023 20.1821 12.3523C19.9406 12.5994 19.6423 12.7926 19.2872 12.9318C18.9321 13.0682 18.533 13.1364 18.0898 13.1364ZM27.2829 6.45455L24.8624 13H23.8397L21.4192 6.45455H22.5102L24.317 11.6705H24.3852L26.192 6.45455H27.2829Z" fill="#0E121B"/>
</svg>
