<svg width="33" height="10" viewBox="0 0 33 10" fill="none" xmlns="http://www.w3.org/2000/svg">
<path d="M0.579545 1.21023V0.272727H7.125V1.21023H4.38068V9H3.32386V1.21023H0.579545ZM7.73999 9V2.45455H8.71158V3.44318H8.77976C8.89908 3.11932 9.11499 2.85653 9.42749 2.65483C9.73999 2.45312 10.0923 2.35227 10.4843 2.35227C10.5582 2.35227 10.6505 2.35369 10.7613 2.35653C10.8721 2.35937 10.9559 2.36364 11.0127 2.36932V3.39205C10.9786 3.38352 10.9005 3.37074 10.7783 3.35369C10.659 3.33381 10.5326 3.32386 10.3991 3.32386C10.0809 3.32386 9.7968 3.39062 9.5468 3.52415C9.29965 3.65483 9.10362 3.83665 8.95874 4.0696C8.81669 4.29972 8.74567 4.5625 8.74567 4.85795V9H7.73999ZM13.931 9.15341C13.5162 9.15341 13.1398 9.07528 12.8017 8.91903C12.4636 8.75994 12.1952 8.53125 11.9963 8.23295C11.7974 7.93182 11.698 7.56818 11.698 7.14205C11.698 6.76705 11.7719 6.46307 11.9196 6.23011C12.0673 5.99432 12.2648 5.80966 12.5119 5.67614C12.7591 5.54261 13.0318 5.44318 13.3301 5.37784C13.6313 5.30966 13.9338 5.25568 14.2378 5.21591C14.6355 5.16477 14.958 5.12642 15.2051 5.10085C15.4551 5.07244 15.6369 5.02557 15.7506 4.96023C15.867 4.89489 15.9253 4.78125 15.9253 4.61932V4.58523C15.9253 4.16477 15.8102 3.83807 15.5801 3.60511C15.3528 3.37216 15.0077 3.25568 14.5446 3.25568C14.0645 3.25568 13.6881 3.3608 13.4153 3.57102C13.1426 3.78125 12.9509 4.00568 12.8401 4.24432L11.8855 3.90341C12.056 3.50568 12.2832 3.19602 12.5673 2.97443C12.8543 2.75 13.1668 2.59375 13.5048 2.50568C13.8457 2.41477 14.181 2.36932 14.5105 2.36932C14.7207 2.36932 14.9622 2.39489 15.2349 2.44602C15.5105 2.49432 15.7761 2.59517 16.0318 2.74858C16.2903 2.90199 16.5048 3.13352 16.6753 3.44318C16.8457 3.75284 16.931 4.16761 16.931 4.6875V9H15.9253V8.11364H15.8741C15.806 8.25568 15.6923 8.40767 15.5332 8.5696C15.3741 8.73153 15.1625 8.86932 14.8983 8.98295C14.6341 9.09659 14.3116 9.15341 13.931 9.15341ZM14.0844 8.25C14.4821 8.25 14.8173 8.17188 15.0901 8.01562C15.3656 7.85938 15.573 7.65767 15.7122 7.41051C15.8543 7.16335 15.9253 6.90341 15.9253 6.63068V5.71023C15.8827 5.76136 15.7889 5.80824 15.644 5.85085C15.502 5.89062 15.3372 5.92614 15.1497 5.95739C14.9651 5.9858 14.7847 6.01136 14.6085 6.03409C14.4352 6.05398 14.2946 6.07102 14.1866 6.08523C13.9253 6.11932 13.681 6.17472 13.4537 6.25142C13.2293 6.32528 13.0474 6.4375 12.9082 6.58807C12.7719 6.7358 12.7037 6.9375 12.7037 7.19318C12.7037 7.54261 12.833 7.80682 13.0915 7.9858C13.3528 8.16193 13.6838 8.25 14.0844 8.25ZM23.6844 2.45455L21.264 9H20.2413L17.8208 2.45455H18.9117L20.7185 7.67045H20.7867L22.5935 2.45455H23.6844ZM27.3218 9.13636C26.6911 9.13636 26.1471 8.99716 25.6897 8.71875C25.2352 8.4375 24.8843 8.04545 24.6371 7.54261C24.3928 7.03693 24.2707 6.44886 24.2707 5.77841C24.2707 5.10795 24.3928 4.51705 24.6371 4.00568C24.8843 3.49148 25.2281 3.09091 25.6684 2.80398C26.1116 2.5142 26.6286 2.36932 27.2195 2.36932C27.5604 2.36932 27.8971 2.42614 28.2295 2.53977C28.5619 2.65341 28.8644 2.83807 29.1371 3.09375C29.4099 3.34659 29.6272 3.68182 29.7891 4.09943C29.9511 4.51705 30.032 5.03125 30.032 5.64205V6.06818H24.9866V5.19886H29.0093C29.0093 4.82955 28.9354 4.5 28.7877 4.21023C28.6428 3.92045 28.4354 3.69176 28.1656 3.52415C27.8985 3.35653 27.5832 3.27273 27.2195 3.27273C26.819 3.27273 26.4724 3.37216 26.1798 3.57102C25.89 3.76705 25.667 4.02273 25.5107 4.33807C25.3545 4.65341 25.2764 4.99148 25.2764 5.35227V5.93182C25.2764 6.42614 25.3616 6.84517 25.532 7.18892C25.7053 7.52983 25.9454 7.78977 26.2522 7.96875C26.559 8.14489 26.9156 8.23295 27.3218 8.23295C27.586 8.23295 27.8246 8.19602 28.0377 8.12216C28.2536 8.04545 28.4397 7.93182 28.596 7.78125C28.7522 7.62784 28.8729 7.4375 28.9582 7.21023L29.9298 7.48295C29.8275 7.8125 29.6556 8.10227 29.4141 8.35227C29.1727 8.59943 28.8744 8.79261 28.5192 8.93182C28.1641 9.06818 27.765 9.13636 27.3218 9.13636ZM32.3675 0.272727V9H31.3619V0.272727H32.3675Z" fill="#0E121B"/>
</svg>
