<svg width="6" height="7" viewBox="0 0 6 7" fill="none" xmlns="http://www.w3.org/2000/svg">
<path fill-rule="evenodd" clip-rule="evenodd" d="M2.97852 0.40625H3.02435C3.33835 0.40625 3.60927 0.40625 3.83268 0.423666C4.06835 0.442 4.30318 0.4825 4.53093 0.592333C4.91293 0.776583 5.22118 1.08483 5.40543 1.46683C5.51527 1.69458 5.55577 1.92942 5.5741 2.16508C5.59152 2.3885 5.59152 2.65942 5.59152 2.97342V6.09517C5.59152 6.44033 5.31168 6.72017 4.96652 6.72017C4.62135 6.72017 4.34152 6.44033 4.34152 6.09517V2.99633C4.34152 2.65292 4.3411 2.43125 4.32793 2.26217C4.31527 2.1 4.29377 2.03933 4.27952 2.00975C4.2181 1.88242 4.11535 1.77967 3.98802 1.71825C3.95843 1.704 3.89777 1.6825 3.7356 1.66983C3.56652 1.65667 3.34485 1.65625 3.00143 1.65625C2.65802 1.65625 2.43627 1.65667 2.26727 1.66983C2.10502 1.6825 2.04443 1.704 2.01485 1.71825C1.88752 1.77967 1.78477 1.88242 1.72335 2.00975C1.7091 2.03933 1.6876 2.1 1.67493 2.26217C1.66177 2.43125 1.66135 2.65292 1.66135 2.99633V6.09517C1.66135 6.44033 1.38152 6.72017 1.03632 6.72017C0.691134 6.72017 0.411317 6.44033 0.411317 6.09517V2.97342C0.4113 2.65942 0.411291 2.3885 0.428708 2.16508C0.447083 1.92942 0.4876 1.69458 0.597417 1.46683C0.781625 1.08483 1.0899 0.776583 1.47193 0.592333C1.69968 0.4825 1.93443 0.442 2.1701 0.423666C2.3936 0.40625 2.66452 0.40625 2.97852 0.40625Z" fill="#335CFF"/>
</svg>
